<svg id="Layer_1" data-name="Layer 1" xmlns="http://www.w3.org/2000/svg" width="182.4" height="187.45" viewBox="0 0 182.4 187.45">
  <g>
    <rect x="26.11" y="10.14" width="132.67" height="174.59" style="stroke: #000;stroke-miterlimit: 10;stroke-width: 0.25px"/>
    <g>
      <path d="M71.19,137.1c5.3-3.09,14.07-5,23.49-5s18.17,1.86,23.49,5a95.83,95.83,0,0,0,15.45-3.84,6.38,6.38,0,0,0,.77-2.89c0-8.3-18.17-15.29-39.69-15.29s-39.7,7-39.7,15.29a6.44,6.44,0,0,0,.77,2.89A99.22,99.22,0,0,0,71.19,137.1Z" transform="translate(-2.28 -2.75)" style="fill: #008ff9;stroke: #000;stroke-miterlimit: 10;stroke-width: 0.5px"/>
      <path d="M74.19,137.6a143.2,143.2,0,0,0,20.47,1.46,142.74,142.74,0,0,0,20.46-1.46C110,135.34,102.6,134,94.66,134S79.32,135.28,74.19,137.6Z" transform="translate(-2.28 -2.75)" style="fill: #008ff9;stroke: #000;stroke-miterlimit: 10;stroke-width: 0.5px"/>
      <path d="M129.25,179.18a38.25,38.25,0,0,1-6.17-5.65c-2.06,5.84-13.78,10.22-28.4,10.22s-26.4-4.38-28.41-10.22a41.69,41.69,0,0,1-6.07,5.65c-1.15.83-2.44,1.66-3.83,2.51A6.29,6.29,0,0,0,55,185.47a6,6,0,0,0,.5,2.36H134a6.12,6.12,0,0,0-.87-6.14A39.66,39.66,0,0,1,129.25,179.18Z" transform="translate(-2.28 -2.75)" style="fill: #008ff9;stroke: #000;stroke-miterlimit: 10;stroke-width: 0.5px"/>
      <path d="M135.74,183.16a7.77,7.77,0,0,1,.39,2.31,7.63,7.63,0,0,1-.39,2.36h9.12a46.88,46.88,0,0,0-6.44-3.39C137.46,184,136.61,183.61,135.74,183.16Z" transform="translate(-2.28 -2.75)" style="fill: #008ff9"/>
      <path d="M50.92,184.44a46.88,46.88,0,0,0-6.44,3.39h9.1a7.18,7.18,0,0,1,0-4.67C52.73,183.61,51.86,184,50.92,184.44Z" transform="translate(-2.28 -2.75)" style="fill: #008ff9"/>
      <path d="M71.15,149a23,23,0,0,0,5.67,2.73,33.49,33.49,0,0,0,6,1.57,64.18,64.18,0,0,0,11.89,1.07,61.78,61.78,0,0,0,13.62-1.45c.66-.14,1.31-.3,2-.46a28.14,28.14,0,0,0,4.91-1.74l.29-.14A19,19,0,0,0,118.3,149a39.69,39.69,0,0,1,4.07-5.85h0c1-1.22,2.06-2.31,3-3.25h.06a9.32,9.32,0,0,0,.72-.7h0c-2.45.58-5.73,1.27-9.62,1.88q-3.4.54-7,.89c-3.34.32-8,.66-13.44.72l-1.46,0A138.3,138.3,0,0,1,65,139.66c-.25-.06-.48-.12-.71-.16l-.44-.1-.74-.18h0c.2.18.41.36.64.54A108.56,108.56,0,0,1,71.15,149Z" transform="translate(-2.28 -2.75)" style="fill: #008ff9;stroke: #000;stroke-miterlimit: 10;stroke-width: 0.5px"/>
      <path d="M169.75,6.58H16.94A12,12,0,0,0,5.19,18.67V175.75a12,12,0,0,0,11.75,12.08H38.57a40.44,40.44,0,0,1,10.9-6.67A42.58,42.58,0,0,0,58,176.28a38.24,38.24,0,0,0,8.32-8.55c3-4.22,4-7.87,4-9.79s-1.06-5.55-4-9.78A37.64,37.64,0,0,0,58,139.6a42.65,42.65,0,0,0-8.56-4.91l0,0c-10.38-4.58-16.68-10.82-16.68-17.75,0-14.46,27.2-25.75,61.93-25.75S156.61,102.5,156.61,117c0,6.93-6.32,13.17-16.69,17.75l0,0a42.3,42.3,0,0,0-8.56,4.88,38.07,38.07,0,0,0-8.32,8.56c-3,4.21-4,7.86-4,9.78s1.06,5.55,4,9.79a37.19,37.19,0,0,0,8.32,8.55,42.84,42.84,0,0,0,8.56,4.92,41.1,41.1,0,0,1,10.88,6.63h19a12,12,0,0,0,11.76-12.08V18.69A12,12,0,0,0,169.75,6.58Z" transform="translate(-2.28 -2.75)" style="fill: #008ff9;stroke: #000;stroke-miterlimit: 10;stroke-width: 0.5px"/>
      <path d="M67.7,171.87c.19,4.87,11,10.08,27,10.08s26.78-5.21,27-10.08c-.52-.7-1.06-1.33-1.53-2a30.64,30.64,0,0,1-4-7.87c-3.58,3.49-11.77,5.85-21.46,5.85S76.82,165.47,73.23,162a27.47,27.47,0,0,1-4,7.87C68.74,170.54,68.22,171.17,67.7,171.87Z" transform="translate(-2.28 -2.75)" style="fill: #008ff9;stroke: #000;stroke-miterlimit: 10;stroke-width: 0.5px"/>
      <path d="M94.68,156.18c-8.9,0-16.88-1.63-22.2-4.28a16.52,16.52,0,0,1,1.43,6,13.93,13.93,0,0,1-.2,1.92c2.26,3.19,10.1,6.14,21,6.14s18.69-2.89,21-6.14a13.93,13.93,0,0,1-.2-1.92,16.43,16.43,0,0,1,1.43-6C111.6,154.55,103.56,156.18,94.68,156.18Z" transform="translate(-2.28 -2.75)" style="fill: #008ff9;stroke: #000;stroke-miterlimit: 10;stroke-width: 0.5px"/>
      <path d="M94.68,113.25c23.24,0,41.47,7.47,41.47,17.06a8,8,0,0,1-.33,2.12c10.62-4,17.27-9.53,17.27-15.53,0-12.05-26.73-22.17-58.39-22.17S36.31,104.91,36.31,116.9c0,6,6.65,11.55,17.27,15.53a7.86,7.86,0,0,1-.33-2.12C53.21,120.78,71.42,113.25,94.68,113.25Z" transform="translate(-2.28 -2.75)" style="fill: #008ff9;stroke: #000;stroke-miterlimit: 10;stroke-width: 0.5px"/>
    </g>
    <g>
      <path d="M49.05,100.68A68.93,68.93,0,0,1,68.86,124.4a68,68,0,0,1,5.67,16" transform="translate(-2.28 -2.75)" style="fill: none;stroke: #000;stroke-miterlimit: 10;stroke-width: 2px"/>
      <path d="M140.79,100.67A68.93,68.93,0,0,0,121,124.39a67.81,67.81,0,0,0-5.66,16" transform="translate(-2.28 -2.75)" style="fill: none;stroke: #000;stroke-miterlimit: 10;stroke-width: 2px"/>
      <line x1="93.3" y1="137.63" x2="93.3" y2="92.05" style="fill: none;stroke: #000;stroke-miterlimit: 10;stroke-width: 2px"/>
    </g>
    <circle cx="92.45" cy="31.34" r="10.38"/>
    <rect x="2.5" y="2.5" width="177.4" height="182.45" rx="12.3" style="fill: none;stroke: #000;stroke-miterlimit: 10;stroke-width: 5px"/>
    <path d="M54,149.94" transform="translate(-2.28 -2.75)" style="fill: none;stroke: #000;stroke-miterlimit: 10;stroke-width: 0.5px"/>
  </g>
</svg>
