<svg id="Layer_1" data-name="Layer 1" xmlns="http://www.w3.org/2000/svg" width="43.53" height="44.74" viewBox="0 0 43.53 44.74">
  <rect x="0.5" y="0.5" width="42.53" height="43.74" rx="2.86" style="fill: none;stroke: #000;stroke-miterlimit: 10"/>
  <path d="M35.89,23.78a10.43,10.43,0,0,0-3.77-2.28,29.36,29.36,0,0,0-9.37-1.73H20a29.36,29.36,0,0,0-9.37,1.73,10.34,10.34,0,0,0-3.77,2.28,3.33,3.33,0,0,0-1.11,2.78A3.69,3.69,0,0,0,7,28.85a10.35,10.35,0,0,0,3.12,1.92,9.91,9.91,0,0,1,4.4,3.62c.16.23.29.49.43.74a2.89,2.89,0,0,1-.1,3,9.66,9.66,0,0,1-4.78,4.18,11.76,11.76,0,0,0-2.75,1.58.37.37,0,0,0-.15.47c0,.07.22.09.34.09H35.22c.12,0,.31,0,.34-.09a.38.38,0,0,0-.15-.47,11.86,11.86,0,0,0-2.78-1.61,9.61,9.61,0,0,1-4.78-4.18,2.89,2.89,0,0,1-.1-3c.14-.25.27-.51.43-.74a9.86,9.86,0,0,1,4.43-3.62,10.35,10.35,0,0,0,3.12-1.92A3.69,3.69,0,0,0,37,26.53,3.33,3.33,0,0,0,35.89,23.78Zm-9.35-2.66a31.07,31.07,0,0,1,5.29,1.34,20.86,20.86,0,0,0-2.29,2.41c-.43.53-.82,1.05-1.15,1.54l-.19-.07-.49-.16a22.68,22.68,0,0,0-4.47-.81c-.41,0-1-.06-1.63-.07V20.7A31.34,31.34,0,0,1,26.54,21.12Zm-7.69,9.65a11.29,11.29,0,0,1,2.25-.22v1.24l-4.56-.32a12,12,0,0,1,2.35-.7Zm-2.51.16a15,15,0,0,0-.76-2.16,14.22,14.22,0,0,0-1-1.84,17.84,17.84,0,0,1,3.21-.84,18,18,0,0,1,3.28-.27V30a13.86,13.86,0,0,0-2.41.24,12.19,12.19,0,0,0-2.28.68Zm5.23-.38a11.29,11.29,0,0,1,2.25.22,11.79,11.79,0,0,1,2.4.7l-4.65.32Zm2.41-.3A13.86,13.86,0,0,0,21.57,30V25.82a18,18,0,0,1,3.28.27,17.84,17.84,0,0,1,3.21.84,14.22,14.22,0,0,0-1,1.84,15,15,0,0,0-.76,2.16A12.19,12.19,0,0,0,24,30.25Zm-7.85-9.13a32.13,32.13,0,0,1,5-.42v4.6a10.74,10.74,0,0,0-1.63.07,22.68,22.68,0,0,0-4.47.81l-.49.16-.19.07c-.34-.49-.72-1-1.15-1.54a21.21,21.21,0,0,0-2.33-2.41,31.18,31.18,0,0,1,5.3-1.34ZM11,30l-.36-.13a9,9,0,0,1-3.16-2,2.52,2.52,0,0,1-.8-1.68,2.63,2.63,0,0,1,.68-1.6,5.63,5.63,0,0,1,3.05-2,15.57,15.57,0,0,1,2.06,2,16.93,16.93,0,0,1,1.48,2,6.08,6.08,0,0,0-1.77,1,3,3,0,0,0-1.11,1.46A2.17,2.17,0,0,0,11,30Zm.86.3a.5.5,0,0,1-.29-.2.79.79,0,0,1-.1-.37v-.26a1.66,1.66,0,0,1,.35-.88,6.32,6.32,0,0,1,2.34-1.57,7.52,7.52,0,0,1,.56,1c.25.47.2.46.5,1.09a12.35,12.35,0,0,1,.64,1.76.32.32,0,0,1,0,.27.6.6,0,0,1-.29.08,8.53,8.53,0,0,1-2-.39s-1-.3-1.67-.53ZM9,44V43.9l2.1-1a1,1,0,0,0-.14.64,1.25,1.25,0,0,0,.15.46Zm22.63-1.09,2.1,1V44H31.64a1.25,1.25,0,0,0,.15-.46A1.19,1.19,0,0,0,31.65,42.88ZM30.1,42a2.32,2.32,0,0,1,.53.35,1.6,1.6,0,0,1,.61,1,1.44,1.44,0,0,1-.08.68H11.59a1.44,1.44,0,0,1-.08-.68,1.6,1.6,0,0,1,.61-1,2.32,2.32,0,0,1,.53-.35c.59-.47,1.16-1,1.74-1.42a3.18,3.18,0,0,0,1.41,1.28A11,11,0,0,0,20,42.94c.47,0,.94.07,1.4.08a7.46,7.46,0,0,0,1.41-.08A11,11,0,0,0,27,41.85a3.18,3.18,0,0,0,1.41-1.28C28.94,41,29.54,41.52,30.1,42Zm-2.28-2.16a.4.4,0,0,1,0,.52,4.23,4.23,0,0,1-.85.84,8.18,8.18,0,0,1-3.19,1.09,15.62,15.62,0,0,1-2.46.22,15.5,15.5,0,0,1-2.45-.22,7.87,7.87,0,0,1-3.19-1.09,4.23,4.23,0,0,1-.85-.84.39.39,0,0,1,.05-.52,9.33,9.33,0,0,0,.71-1.06c.21-.37.37-.75.56-1.14a5.61,5.61,0,0,0,2.14,1,13.22,13.22,0,0,0,3,.41,13.22,13.22,0,0,0,3-.41,5.57,5.57,0,0,0,2.25-1c.18.39.35.77.56,1.14A11,11,0,0,0,27.82,39.83Zm-1.44-3a.48.48,0,0,1-.14.34,4.25,4.25,0,0,1-1.8.9,12.23,12.23,0,0,1-3.07.43,12.21,12.21,0,0,1-3.06-.43,4.09,4.09,0,0,1-1.8-.9.48.48,0,0,1-.14-.34,3.18,3.18,0,0,0-.19-1.43,1,1,0,0,0-.07-.24,16.85,16.85,0,0,0,5.26,1,16.91,16.91,0,0,0,5.27-1,.33.33,0,0,1-.07.24A3,3,0,0,0,26.38,36.83Zm.16-2.2a11,11,0,0,1-3.33.87,18.14,18.14,0,0,1-1.81.13,15.56,15.56,0,0,1-1.8-.13,10.89,10.89,0,0,1-3.36-.87,2,2,0,0,1-.86-.73c-.47-.67-1-1.29-1.5-1.92a40.1,40.1,0,0,0,7.49.8,40.21,40.21,0,0,0,7.5-.8c-.5.59-1,1.21-1.5,1.88A3.8,3.8,0,0,1,26.54,34.63Zm4.72-4.89a.79.79,0,0,1-.1.37.5.5,0,0,1-.29.2c-.64.23-1.74.49-1.74.49a8.53,8.53,0,0,1-2,.39.6.6,0,0,1-.29-.08.32.32,0,0,1,0-.27,12.35,12.35,0,0,1,.64-1.76c.3-.63.25-.62.5-1.09a7.52,7.52,0,0,1,.56-1,6.29,6.29,0,0,1,2.34,1.64,1.66,1.66,0,0,1,.35.88c0,.12,0,.22,0,.26Zm4-1.81a9.13,9.13,0,0,1-3.16,2l-.36.13a2.41,2.41,0,0,0,0-1,3,3,0,0,0-1.2-1.43,6.08,6.08,0,0,0-1.77-1,17.92,17.92,0,0,1,3.58-4,5.61,5.61,0,0,1,3,2A2.66,2.66,0,0,1,36,26.24,2.52,2.52,0,0,1,35.24,28Z" transform="translate(0.12 0.12)" style="stroke: #000;stroke-miterlimit: 10;stroke-width: 0.25px"/>
  <ellipse cx="21.5" cy="7.34" rx="2.4" ry="2.46"/>
</svg>
