<svg xmlns="http://www.w3.org/2000/svg" width="43.53" height="44.74" viewBox="0 0 43.53 44.74">
  <g id="Layer_2" data-name="Layer 2">
    <g id="Layer_1-2" data-name="Layer 1">
      <path d="M36.56,23.41a10.45,10.45,0,0,0-3.79-2.29,29.51,29.51,0,0,0-9.39-1.75l-1.39,0c-.46,0-.92,0-1.38,0a29.07,29.07,0,0,0-9.4,1.75,10.41,10.41,0,0,0-3.78,2.29A3.35,3.35,0,0,0,6.31,26.2a3.75,3.75,0,0,0,1.28,2.3,10.35,10.35,0,0,0,3.12,1.92,10,10,0,0,1,4.46,3.64c.15.23.29.49.42.74a2.88,2.88,0,0,1-.1,3,8.68,8.68,0,0,1-.94,1.39A13,13,0,0,1,10.69,42a19.82,19.82,0,0,1-2.35,1.07c-2.16.82-3.66,1-3.64,1.12s3.4,0,3.4,0c18.66-.1,25.83-.07,27.8,0,.18,0,2,.08,2.05-.1s-.26-.14-1.1-.4l-1.5-.49a13.45,13.45,0,0,1-3.65-1.81,12.07,12.07,0,0,1-2.16-2.08,8.08,8.08,0,0,1-1-1.5,2.86,2.86,0,0,1-.1-3c.14-.25.27-.51.43-.74a9.9,9.9,0,0,1,4.45-3.64A10.35,10.35,0,0,0,36.4,28.5a3.75,3.75,0,0,0,1.28-2.3A3.38,3.38,0,0,0,36.56,23.41Zm-9.35-2.67a30.17,30.17,0,0,1,5.31,1.35,20.32,20.32,0,0,0-2.33,2.4C29.75,25,29.37,25.55,29,26l-.2-.07-.49-.16A22.56,22.56,0,0,0,23.86,25c-.4,0-1-.06-1.63-.07V20.32A32,32,0,0,1,27.21,20.74Zm-7.72,9.68a13.32,13.32,0,0,1,2.27-.22v1.25l-4.67-.32A12.49,12.49,0,0,1,19.49,30.42ZM17,30.58a15,15,0,0,0-.76-2.16,14.15,14.15,0,0,0-1-1.85,19.29,19.29,0,0,1,6.51-1.12v4.22a13,13,0,0,0-4.77.91Zm5.25-.38a12.67,12.67,0,0,1,4.67.93l-4.67.32Zm2.42-.3a12.92,12.92,0,0,0-2.4-.23V25.45a19.25,19.25,0,0,1,6.51,1.12,14.21,14.21,0,0,0-1,1.85A15,15,0,0,0,27,30.58a12.86,12.86,0,0,0-2.37-.68Zm-7.87-9.16a32.1,32.1,0,0,1,5-.42v4.62c-.67,0-1.23,0-1.64.06a22.52,22.52,0,0,0-4.48.81l-.49.17-.2.07c-.33-.5-.72-1-1.15-1.55a20.47,20.47,0,0,0-2.34-2.41A31.56,31.56,0,0,1,16.78,20.74Zm-5.17,9c-.14-.05-.25-.08-.36-.13a9.34,9.34,0,0,1-3.17-1.95,2.52,2.52,0,0,1-.8-1.69,2.55,2.55,0,0,1,.63-1.61,5.66,5.66,0,0,1,3.07-2,18.34,18.34,0,0,1,2.07,2,17.43,17.43,0,0,1,1.48,1.94,5.82,5.82,0,0,0-1.78,1,3,3,0,0,0-1.11,1.47A2.41,2.41,0,0,0,11.61,29.69Zm.86.31a.63.63,0,0,1-.29-.2.78.78,0,0,1-.09-.37s0-.14,0-.26a1.57,1.57,0,0,1,.36-.87,6.27,6.27,0,0,1,2.35-1.59c.2.31.39.63.56,1s.2.47.5,1.1a11.24,11.24,0,0,1,.64,1.76.39.39,0,0,1,0,.28,1,1,0,0,1-.3.08,8.85,8.85,0,0,1-2-.39S13.11,30.22,12.47,30ZM9.59,43.67l0-.07,2.11-1a1.08,1.08,0,0,0,0,1.1Zm22.72-1.09,2.11,1,0,.07h-2.1a1.1,1.1,0,0,0,0-1.11Zm-1.56-.9a3.24,3.24,0,0,1,.53.35,1.63,1.63,0,0,1,.61,1,1.35,1.35,0,0,1-.08.69c-4.35,0-7.6,0-9.82,0-1.4,0-4.81.06-9.44,0h-.37a1.35,1.35,0,0,1-.09-.69,1.68,1.68,0,0,1,.61-1,3.84,3.84,0,0,1,.54-.35c.58-.46,1.16-.94,1.75-1.42a3.09,3.09,0,0,0,1.41,1.29,11.12,11.12,0,0,0,4.19,1.09c.47,0,.94.07,1.41.08a9.53,9.53,0,0,0,1.41-.08,11.07,11.07,0,0,0,4.18-1.09A3.12,3.12,0,0,0,29,40.26c.57.47,1.15,1,1.74,1.42Zm-2.29-2.16c.14.18.19.36.05.52a4.88,4.88,0,0,1-.85.85A8.27,8.27,0,0,1,24.45,42,15.51,15.51,0,0,1,22,42.2,15.73,15.73,0,0,1,19.53,42a8.07,8.07,0,0,1-3.2-1.09,4.62,4.62,0,0,1-.86-.85c-.14-.16-.09-.34,0-.53a11.51,11.51,0,0,0,.71-1.06c.21-.36.37-.75.57-1.14a5.49,5.49,0,0,0,2.13,1,13.1,13.1,0,0,0,3.05.41A13.18,13.18,0,0,0,25,38.31a5.49,5.49,0,0,0,2.13-1c.19.39.36.78.57,1.14a9.86,9.86,0,0,0,.72,1.06Zm-1.44-3a.49.49,0,0,1-.15.34,4.05,4.05,0,0,1-1.8.91,12.23,12.23,0,0,1-3.07.43,12.21,12.21,0,0,1-3.06-.43,4.05,4.05,0,0,1-1.8-.91.45.45,0,0,1-.15-.34,3.17,3.17,0,0,0-.19-1.43c0-.09-.05-.18-.07-.25a17,17,0,0,0,5.28,1,17.28,17.28,0,0,0,5.28-1c0,.07-.05.16-.07.24a3.06,3.06,0,0,0-.2,1.43Zm1-3a2.17,2.17,0,0,1-.86.73,10.77,10.77,0,0,1-3.34.87,15.91,15.91,0,0,1-1.82.13,15.73,15.73,0,0,1-1.81-.13,10.77,10.77,0,0,1-3.34-.87,2.2,2.2,0,0,1-.87-.73c-.46-.67-1-1.3-1.5-1.94A38.89,38.89,0,0,0,22,32.4a39.52,39.52,0,0,0,7.52-.81C29,32.23,28.48,32.86,28,33.53Zm3.89-4.11a.85.85,0,0,1-.09.38.72.72,0,0,1-.29.2c-.65.21-1.75.49-1.75.49a8.85,8.85,0,0,1-2,.39.74.74,0,0,1-.3-.08.36.36,0,0,1,0-.27,11,11,0,0,1,.64-1.77c.3-.63.25-.62.5-1.09s.41-.72.56-1a6.2,6.2,0,0,1,2.35,1.58,1.57,1.57,0,0,1,.36.87C31.89,29.29,31.9,29.39,31.9,29.42Zm4-1.81a9.34,9.34,0,0,1-3.17,1.95c-.11.05-.22.08-.36.13a2.37,2.37,0,0,0,0-1,3,3,0,0,0-1.12-1.47,5.77,5.77,0,0,0-1.77-1,16.3,16.3,0,0,1,1.48-1.94,16.79,16.79,0,0,1,2.07-2,5.61,5.61,0,0,1,3.06,2,2.56,2.56,0,0,1,.64,1.61,2.52,2.52,0,0,1-.8,1.68Z" style="stroke: #000;stroke-miterlimit: 10;stroke-width: 0.25px"/>
      <ellipse cx="21.76" cy="7.23" rx="2.41" ry="2.47"/>
      <rect x="0.5" y="0.5" width="42.53" height="43.74" rx="2.86" style="fill: none;stroke: #000;stroke-miterlimit: 10"/>
    </g>
  </g>
</svg>
