<svg id="Layer_1" data-name="Layer 1" xmlns="http://www.w3.org/2000/svg" width="419.11" height="186.06" viewBox="0 0 419.11 186.06">
  <rect x="376.08" y="91.31" width="42.53" height="43.74" rx="2.86" style="fill: #2036d9;stroke: #fff;stroke-miterlimit: 10"/>
  <path d="M248.6,91.27c-4.86-4.94-10.91-8-17.28-10.44-13.82-5.3-28.26-7.36-42.93-8-2.11-.09-4.21-.14-6.32-.17s-4.21.08-6.31.17c-14.67.6-29.12,2.66-42.93,8-6.38,2.45-12.42,5.5-17.28,10.44-3.47,3.51-5.65,7.61-5.1,12.74.45,4.32,2.8,7.61,5.82,10.5,4.13,3.94,9.09,6.57,14.27,8.8a45.22,45.22,0,0,1,20.35,16.6c.72,1.08,1.32,2.24,1.94,3.38,2.53,4.62,2.08,9.12-.44,13.63-5,9-12.59,15.12-21.93,19.18a55.17,55.17,0,0,0-12.75,7.38,1.73,1.73,0,0,0-.67,2.14c.13.31,1,.44,1.55.44h127c.54,0,1.42-.13,1.54-.44a1.74,1.74,0,0,0-.66-2.14,56.32,56.32,0,0,0-12.75-7.38c-9.34-4.06-16.9-10.16-21.94-19.18-2.52-4.51-3-9-.44-13.63.62-1.14,1.23-2.3,1.95-3.38a45.15,45.15,0,0,1,20.34-16.6c5.18-2.23,10.15-4.86,14.27-8.8,3-2.89,5.37-6.18,5.83-10.5C254.27,98.88,252.06,94.78,248.6,91.27ZM205.92,79.06a143.94,143.94,0,0,1,24.25,6.17,93.88,93.88,0,0,0-10.66,11c-2,2.43-3.74,4.8-5.27,7.07l-.89-.31-2.24-.77c-8.58-2.83-20.5-3.7-20.5-3.7-1.84-.13-4.4-.27-7.47-.29V77.17A143.68,143.68,0,0,1,205.92,79.06ZM170.66,123.3a57.87,57.87,0,0,1,10.34-1V128l-21.34-1.45A57.61,57.61,0,0,1,170.66,123.3Zm-11.5.73a67.64,67.64,0,0,0-3.46-9.88,68.59,68.59,0,0,0-4.43-8.45A88,88,0,0,1,181,100.61v19.24A60.36,60.36,0,0,0,159.2,124Zm24-1.73a57.9,57.9,0,0,1,21.35,4.23L183.14,128Zm11.07-1.38a60.65,60.65,0,0,0-11-1.07V100.61A88.25,88.25,0,0,1,213,105.7a64.34,64.34,0,0,0-4.47,8.45,67.69,67.69,0,0,0-3.47,9.88,61,61,0,0,0-10.84-3.11Zm-36-41.86a144.76,144.76,0,0,1,22.78-1.89V98.26c-3.07,0-5.62.16-7.47.29,0,0-11.91.87-20.5,3.7l-2.24.77-.89.31c-1.53-2.27-3.27-4.64-5.26-7.07a94,94,0,0,0-10.67-11A144.49,144.49,0,0,1,158.27,79.06ZM134.64,120c-.63-.23-1.15-.4-1.66-.61-5.28-2.23-10.4-4.73-14.47-8.93-2.38-2.46-3.61-5.07-3.66-7.71-.07-3.22,1.62-5.59,2.91-7.36,4.32-5.91,10.7-8.24,14-9.16A77.61,77.61,0,0,1,148,104.06a25.78,25.78,0,0,0-8.13,4.64c-2.2,1.86-4.26,3.66-5.08,6.71A10.37,10.37,0,0,0,134.64,120Zm3.93,1.38a2.4,2.4,0,0,1-1.3-.88,3.31,3.31,0,0,1-.44-1.71,9.35,9.35,0,0,1,.07-1.18,7.28,7.28,0,0,1,1.61-4c2.84-4,10-6.94,10.73-7.23q1.39,2.13,2.58,4.39c1.14,2.18.9,2.13,2.28,5a50,50,0,0,1,2.92,8.06,1.65,1.65,0,0,1-.1,1.25,3.53,3.53,0,0,1-1.34.37c-2.72,0-5.51-.91-9-1.79C146.55,123.61,141.51,122.38,138.57,121.36Zm-13.13,62.48-.12-.32,9.63-4.69a5,5,0,0,0,.08,5Zm103.76-5,9.63,4.69-.13.32h-9.58a5,5,0,0,0,.08-5Zm-7.14-4.09a15.62,15.62,0,0,1,2.45,1.6,7.43,7.43,0,0,1,2.78,4.43,6.27,6.27,0,0,1-.37,3.12c-19.87-.16-34.74-.08-44.85,0-6.4.07-22,.27-43.12,0h-1.72a6,6,0,0,1-.38-3.12,7.41,7.41,0,0,1,2.78-4.43,14.74,14.74,0,0,1,2.45-1.6c2.68-2.14,5.32-4.33,8-6.49a14.28,14.28,0,0,0,6.45,5.87c6,3.13,12.49,4.39,19.12,5q3.22.3,6.44.36a43.62,43.62,0,0,0,6.44-.36c6.64-.62,13.13-1.88,19.12-5a14.35,14.35,0,0,0,6.46-5.87c2.63,2.15,5.27,4.34,7.95,6.48Zm-10.44-9.9c.63.84.84,1.66.21,2.39a20.61,20.61,0,0,1-3.88,3.87c-4.42,2.91-9.49,4.13-14.64,5a63.67,63.67,0,0,1-22.48,0c-5.15-.86-10.21-2.08-14.64-5a20.29,20.29,0,0,1-3.92-3.88c-.63-.73-.41-1.55.22-2.39a49.3,49.3,0,0,0,3.24-4.85c1-1.67,1.73-3.45,2.6-5.23a25,25,0,0,0,9.77,4.58A60.06,60.06,0,0,0,182,161.22,60.22,60.22,0,0,0,196,159.34a25.08,25.08,0,0,0,9.77-4.58c.87,1.78,1.63,3.56,2.59,5.23a46.44,46.44,0,0,0,3.29,4.85ZM205,151.13a2.16,2.16,0,0,1-.67,1.53,18.57,18.57,0,0,1-8.24,4.15,56.68,56.68,0,0,1-14,2,56.54,56.54,0,0,1-14-2,18.49,18.49,0,0,1-8.23-4.15,2.08,2.08,0,0,1-.67-1.53,14.53,14.53,0,0,0-.87-6.56c-.12-.39-.23-.79-.33-1.12a78.51,78.51,0,0,0,24.15,4.42,78.32,78.32,0,0,0,24.1-4.39c-.09.33-.21.73-.33,1.12a14.22,14.22,0,0,0-.91,6.52Zm4.53-13.65a9.88,9.88,0,0,1-3.93,3.35,50.29,50.29,0,0,1-15.28,4,74,74,0,0,1-8.28.59,73.83,73.83,0,0,1-8.28-.59,50.15,50.15,0,0,1-15.27-4,9.84,9.84,0,0,1-3.94-3.35c-2.14-3.06-4.58-5.92-6.86-8.82a178.48,178.48,0,0,0,34.35,3.67,178.76,178.76,0,0,0,34.36-3.67C214.15,131.56,211.71,134.42,209.56,137.48Zm17.77-18.74a3.4,3.4,0,0,1-.43,1.71,2.54,2.54,0,0,1-1.32.91c-2.94,1-8,2.25-8,2.25-3.49.88-6.29,1.79-9,1.79a3.62,3.62,0,0,1-1.34-.37,1.6,1.6,0,0,1-.1-1.25,49.15,49.15,0,0,1,2.93-8.06c1.37-2.9,1.14-2.85,2.27-5,1-1.81,1.86-3.28,2.58-4.39.71.29,7.89,3.28,10.73,7.23a7.44,7.44,0,0,1,1.62,4C227.27,118.12,227.34,118.57,227.33,118.74Zm18.3-8.3c-4.07,4.2-9.18,6.7-14.47,8.93-.5.21-1,.38-1.66.61a10.34,10.34,0,0,0-.14-4.53c-.82-3-2.87-4.85-5.08-6.71a26,26,0,0,0-8.12-4.64,76.54,76.54,0,0,1,6.78-8.85,78,78,0,0,1,9.44-9c3.3.92,9.68,3.25,14,9.16,1.29,1.77,3,4.14,2.91,7.36a11.55,11.55,0,0,1-3.66,7.71Z" transform="translate(-1.29)"/>
  <ellipse cx="180.99" cy="11.29" rx="11.01" ry="11.29"/>
  <path d="M413.42,114.22a10.06,10.06,0,0,0-3.78-2.29,29.62,29.62,0,0,0-9.4-1.75l-1.38,0c-.46,0-.92,0-1.38,0a29,29,0,0,0-9.4,1.75,10.19,10.19,0,0,0-3.78,2.29,3.33,3.33,0,0,0-1.12,2.78,3.69,3.69,0,0,0,1.27,2.3,10.23,10.23,0,0,0,3.13,1.93,9.88,9.88,0,0,1,4.45,3.63c.16.24.29.49.43.74a2.92,2.92,0,0,1-.1,3,9.2,9.2,0,0,1-.95,1.39,13.05,13.05,0,0,1-3.85,2.81,23.71,23.71,0,0,1-2.35,1.07c-2.16.82-3.66,1-3.65,1.12s3.4,0,3.4,0c18.66-.1,25.83-.08,27.8,0a8,8,0,0,0,2.06-.1c0-.07-.27-.14-1.11-.41-.5-.16-1-.33-1.49-.48a11.57,11.57,0,0,1-5.82-3.89,8.08,8.08,0,0,1-1-1.5,2.89,2.89,0,0,1-.09-3c.13-.25.27-.5.42-.74a10,10,0,0,1,4.46-3.63,10.18,10.18,0,0,0,3.12-1.93,3.7,3.7,0,0,0,1.28-2.3A3.36,3.36,0,0,0,413.42,114.22Zm-9.34-2.68a32.29,32.29,0,0,1,5.31,1.35,21.21,21.21,0,0,0-2.33,2.41c-.44.53-.82,1-1.16,1.55l-.19-.07-.49-.17a22.56,22.56,0,0,0-4.49-.81c-.4,0-1-.06-1.64-.06v-4.61A30.92,30.92,0,0,1,404.08,111.54Zm-7.72,9.69a12.28,12.28,0,0,1,2.26-.22v1.24l-4.67-.32A12.77,12.77,0,0,1,396.36,121.23Zm-2.52.16a15,15,0,0,0-.75-2.17,17.17,17.17,0,0,0-1-1.85,19.24,19.24,0,0,1,6.51-1.11v4.21a13.27,13.27,0,0,0-4.78.92Zm5.26-.38a12.66,12.66,0,0,1,4.67.92l-4.68.32Zm2.42-.3a13.86,13.86,0,0,0-2.41-.24v-4.21a19.3,19.3,0,0,1,6.52,1.11,14.89,14.89,0,0,0-1,1.85,15.08,15.08,0,0,0-.76,2.17,13.08,13.08,0,0,0-2.37-.68Zm-7.87-9.17a30.82,30.82,0,0,1,5-.41v4.62c-.68,0-1.24,0-1.64.06a22.56,22.56,0,0,0-4.49.81l-.49.17-.19.07c-.34-.5-.72-1-1.15-1.55a21.32,21.32,0,0,0-2.34-2.41A31.34,31.34,0,0,1,393.65,111.54Zm-5.17,9-.37-.13a9.31,9.31,0,0,1-3.17-2,2.52,2.52,0,0,1-.8-1.69,2.66,2.66,0,0,1,.64-1.61,5.67,5.67,0,0,1,3.06-2,16.79,16.79,0,0,1,2.07,2A17.52,17.52,0,0,1,391.4,117a5.51,5.51,0,0,0-1.78,1,2.93,2.93,0,0,0-1.11,1.47A2.12,2.12,0,0,0,388.48,120.5Zm.86.3a.53.53,0,0,1-.29-.19.79.79,0,0,1-.1-.37,1.55,1.55,0,0,1,0-.26,1.66,1.66,0,0,1,.35-.88,6.2,6.2,0,0,1,2.35-1.58c.21.31.39.63.57,1s.19.47.5,1.09a11,11,0,0,1,.63,1.77.32.32,0,0,1,0,.27.6.6,0,0,1-.29.08,8.64,8.64,0,0,1-2-.39S390,121,389.34,120.8Zm-2.88,13.68,0-.07,2.11-1a1.13,1.13,0,0,0,0,1.11Zm22.72-1.09,2.1,1,0,.07h-2.1a1.11,1.11,0,0,0,0-1.1Zm-1.57-.9a3.84,3.84,0,0,1,.54.35,1.65,1.65,0,0,1,.61,1,1.42,1.42,0,0,1-.08.68c-4.35,0-7.61,0-9.82,0-1.4,0-4.82.06-9.44,0H389a1.42,1.42,0,0,1-.08-.68,1.6,1.6,0,0,1,.61-1,3.24,3.24,0,0,1,.53-.35l1.76-1.42a3.15,3.15,0,0,0,1.41,1.29,11.07,11.07,0,0,0,4.18,1.09c.47,0,.94.07,1.41.08a9.53,9.53,0,0,0,1.41-.08,11.25,11.25,0,0,0,4.19-1.09,3.15,3.15,0,0,0,1.41-1.29l1.74,1.42Zm-2.28-2.17c.14.19.18.37,0,.53a4.23,4.23,0,0,1-.85.84,8,8,0,0,1-3.2,1.1,13.86,13.86,0,0,1-4.92,0,8.13,8.13,0,0,1-3.21-1.1,4.61,4.61,0,0,1-.86-.85c-.13-.16-.09-.33.05-.52a9.33,9.33,0,0,0,.71-1.06c.22-.37.38-.76.57-1.15a5.48,5.48,0,0,0,2.14,1,11.55,11.55,0,0,0,6.1,0,5.48,5.48,0,0,0,2.14-1c.19.39.36.78.57,1.15a9.41,9.41,0,0,0,.72,1.06Zm-1.44-3a.49.49,0,0,1-.15.33,3.94,3.94,0,0,1-1.81.91,12.1,12.1,0,0,1-3.06.44,12.24,12.24,0,0,1-3.07-.44,4.05,4.05,0,0,1-1.8-.91.44.44,0,0,1-.14-.33,3.21,3.21,0,0,0-.19-1.44c0-.08-.05-.17-.08-.24a17.35,17.35,0,0,0,5.29,1,17.58,17.58,0,0,0,5.28-1l-.08.24a3.15,3.15,0,0,0-.19,1.43Zm1-3a2.27,2.27,0,0,1-.86.74,11.12,11.12,0,0,1-3.35.87,15.73,15.73,0,0,1-1.81.13,15.57,15.57,0,0,1-1.81-.13,11,11,0,0,1-3.35-.87,2.27,2.27,0,0,1-.86-.74c-.47-.67-1-1.29-1.5-1.93a35.74,35.74,0,0,0,15,0C405.88,123,405.35,123.66,404.88,124.33Zm3.89-4.1a.69.69,0,0,1-.1.37.5.5,0,0,1-.29.2c-.64.22-1.75.5-1.75.5a8.64,8.64,0,0,1-2,.39,1,1,0,0,1-.29-.08.39.39,0,0,1,0-.28,10.31,10.31,0,0,1,.64-1.76c.3-.64.25-.63.5-1.1s.4-.71.56-1a6.39,6.39,0,0,1,2.35,1.59,1.55,1.55,0,0,1,.35.87C408.75,120.09,408.77,120.19,408.77,120.23Zm4-1.82a9.27,9.27,0,0,1-3.16,2l-.37.13a2.2,2.2,0,0,0,0-1A3,3,0,0,0,408.1,118a5.85,5.85,0,0,0-1.78-1,17.4,17.4,0,0,1,1.49-1.93,16,16,0,0,1,2.06-2,5.69,5.69,0,0,1,3.07,2,2.6,2.6,0,0,1,.63,1.61,2.48,2.48,0,0,1-.8,1.69Z" transform="translate(-1.29)" style="fill: #fff;stroke: #fff;stroke-miterlimit: 10;stroke-width: 0.25px"/>
  <ellipse cx="397.34" cy="98.04" rx="2.41" ry="2.47" style="fill: #fff"/>
  <rect x="0.38" y="68.2" width="42.53" height="43.74" rx="2.86" style="fill: none;stroke: #000;stroke-miterlimit: 10;stroke-width: 0.75px"/>
  <path d="M37.18,91.6a10.21,10.21,0,0,0-3.77-2.28A29.15,29.15,0,0,0,24,87.58c-.46,0-.91,0-1.37,0s-.92,0-1.38,0a29,29,0,0,0-9.36,1.74A10.21,10.21,0,0,0,8.16,91.6,3.36,3.36,0,0,0,7,94.38a3.74,3.74,0,0,0,1.27,2.29,10.47,10.47,0,0,0,3.12,1.92,9.82,9.82,0,0,1,4.44,3.62c.15.23.28.48.42.73a2.9,2.9,0,0,1-.1,3,9.7,9.7,0,0,1-4.78,4.18,12.06,12.06,0,0,0-2.78,1.61.38.38,0,0,0-.15.46c0,.07.22.1.34.1H36.51c.12,0,.31,0,.34-.1a.37.37,0,0,0-.14-.46,12.27,12.27,0,0,0-2.78-1.61,9.73,9.73,0,0,1-4.79-4.18,2.9,2.9,0,0,1-.1-3c.14-.25.27-.5.43-.73a9.72,9.72,0,0,1,4.44-3.62A10.3,10.3,0,0,0,37,96.67a3.69,3.69,0,0,0,1.27-2.29A3.35,3.35,0,0,0,37.18,91.6Zm-9.31-2.67a31.88,31.88,0,0,1,5.29,1.35,20.05,20.05,0,0,0-2.33,2.41c-.43.52-.81,1-1.15,1.54l-.19-.07L29,94a22.35,22.35,0,0,0-4.47-.81c-.4,0-1-.05-1.63-.06v-4.6A32.38,32.38,0,0,1,27.87,88.93Zm-7.69,9.65a12.21,12.21,0,0,1,2.25-.21V99.6l-4.65-.31A12.63,12.63,0,0,1,20.18,98.58Zm-2.51.16a14.44,14.44,0,0,0-.76-2.15,15,15,0,0,0-1-1.85,19.27,19.27,0,0,1,3.21-.83,19.68,19.68,0,0,1,3.28-.28v4.2a13.07,13.07,0,0,0-4.76.91Zm5.23-.37a12.31,12.31,0,0,1,2.26.21,12.63,12.63,0,0,1,2.4.71l-4.66.31Zm2.41-.31a13.21,13.21,0,0,0-2.41-.23v-4.2a19.51,19.51,0,0,1,3.28.28,19.27,19.27,0,0,1,3.21.83,15,15,0,0,0-1,1.85,14.44,14.44,0,0,0-.76,2.15A13.18,13.18,0,0,0,25.31,98.06Zm-7.84-9.13a32.36,32.36,0,0,1,5-.41v4.6c-.67,0-1.22,0-1.63.06a22.47,22.47,0,0,0-4.47.81l-.49.17-.19.07a16.16,16.16,0,0,0-1.15-1.54,20.83,20.83,0,0,0-2.32-2.41A31.62,31.62,0,0,1,17.47,88.93Zm-5.15,8.93L12,97.72A9.22,9.22,0,0,1,8.8,95.78,2.56,2.56,0,0,1,8,94.1a2.64,2.64,0,0,1,.64-1.61,5.62,5.62,0,0,1,3-2,17.54,17.54,0,0,1,2.06,2,17.58,17.58,0,0,1,1.48,1.93,5.79,5.79,0,0,0-1.77,1,2.9,2.9,0,0,0-1.11,1.46A2.32,2.32,0,0,0,12.32,97.86Zm.86.3a.52.52,0,0,1-.29-.2.65.65,0,0,1-.09-.37,1.27,1.27,0,0,1,0-.26,1.67,1.67,0,0,1,.35-.88,6.33,6.33,0,0,1,2.34-1.57,9.63,9.63,0,0,1,.56,1c.25.48.2.47.5,1.1a11,11,0,0,1,.64,1.76.37.37,0,0,1,0,.27.92.92,0,0,1-.29.08,8.64,8.64,0,0,1-2-.39S13.82,98.38,13.18,98.16Zm-2.86,13.63,0-.07,2.1-1a1.15,1.15,0,0,0-.14.65,1,1,0,0,0,.16.46ZM33,110.69l2.1,1,0,.07H32.93a1.13,1.13,0,0,0,0-1.11Zm-1.56-.89a3.61,3.61,0,0,1,.53.35,1.61,1.61,0,0,1,.61,1,1.29,1.29,0,0,1-.08.68c-4.34,0-7.58,0-9.78,0-1.4,0-4.81.06-9.41,0h-.37a1.45,1.45,0,0,1-.09-.68,1.66,1.66,0,0,1,.61-1,3.61,3.61,0,0,1,.53-.35c.59-.46,1.17-.94,1.74-1.41a3.19,3.19,0,0,0,1.41,1.28,11,11,0,0,0,4.17,1.09c.47,0,.94.07,1.41.08s.93,0,1.4-.08a11,11,0,0,0,4.17-1.09,3.19,3.19,0,0,0,1.41-1.28C30.23,108.86,30.81,109.34,31.39,109.8Zm-2.28-2.16c.14.19.19.37.05.52a4.56,4.56,0,0,1-.85.85,8.18,8.18,0,0,1-3.19,1.09,16.9,16.9,0,0,1-2.45.22,16.77,16.77,0,0,1-2.45-.22A8.23,8.23,0,0,1,17,109a4.83,4.83,0,0,1-.84-.85c-.14-.15-.09-.33,0-.52a9.21,9.21,0,0,0,.71-1c.21-.37.38-.76.57-1.14a5.47,5.47,0,0,0,2.13,1,13.16,13.16,0,0,0,3,.41,13.23,13.23,0,0,0,3-.41,5.47,5.47,0,0,0,2.13-1c.19.38.35.77.56,1.14A10.73,10.73,0,0,0,29.11,107.64Zm-1.44-3a.45.45,0,0,1-.14.33,4,4,0,0,1-1.8.91,12.28,12.28,0,0,1-3.06.43,12.29,12.29,0,0,1-3.07-.43,4,4,0,0,1-1.79-.91.42.42,0,0,1-.15-.33,3,3,0,0,0-.19-1.43c0-.09,0-.17-.07-.24a17.52,17.52,0,0,0,5.27,1,17.45,17.45,0,0,0,5.26-1c0,.07,0,.15-.07.24A3.31,3.31,0,0,0,27.67,104.65Zm1-3a2.1,2.1,0,0,1-.86.73,10.62,10.62,0,0,1-3.33.86,15.56,15.56,0,0,1-1.8.13,15.73,15.73,0,0,1-1.81-.13,10.77,10.77,0,0,1-3.33-.86,2.16,2.16,0,0,1-.86-.73c-.47-.67-1-1.3-1.5-1.93a39,39,0,0,0,7.5.8,38.91,38.91,0,0,0,7.49-.8C29.66,100.38,29.13,101,28.66,101.68Zm3.88-4.09a.76.76,0,0,1-.1.37.51.51,0,0,1-.28.2c-.65.22-1.75.49-1.75.49a8.67,8.67,0,0,1-2,.39.78.78,0,0,1-.29-.08.33.33,0,0,1,0-.27,10.45,10.45,0,0,1,.63-1.76c.3-.63.25-.62.5-1.1a9.63,9.63,0,0,1,.56-1,6.26,6.26,0,0,1,2.34,1.57,1.75,1.75,0,0,1,.36.88C32.53,97.45,32.54,97.55,32.54,97.59Zm4-1.81a9.12,9.12,0,0,1-3.16,1.94l-.36.14a2.17,2.17,0,0,0,0-1,2.9,2.9,0,0,0-1.11-1.46,5.67,5.67,0,0,0-1.77-1,18.92,18.92,0,0,1,1.48-1.93,19.26,19.26,0,0,1,2.06-2,5.67,5.67,0,0,1,3.06,2,2.63,2.63,0,0,1,.63,1.61A2.51,2.51,0,0,1,36.53,95.78Z" transform="translate(-1.29)" style="stroke: #000;stroke-miterlimit: 10;stroke-width: 0.25px"/>
  <ellipse cx="21.38" cy="75.04" rx="2.4" ry="2.46"/>
</svg>
