<svg id="Layer_1" data-name="Layer 1" xmlns="http://www.w3.org/2000/svg" viewBox="0 0 44 45.2">
  <defs>
    <style>
      .cls-1, .cls-2 {
        fill: #fff;
      }

      .cls-1, .cls-3 {
        stroke: #fff;
        stroke-miterlimit: 10;
      }

      .cls-1 {
        stroke-width: 0.3px;
      }

      .cls-3 {
        fill: none;
        stroke-width: 1.4px;
      }
    </style>
  </defs>
  <path class="cls-1" d="M36.8,23.6A11.39,11.39,0,0,0,33,21.3a30.13,30.13,0,0,0-9.4-1.8H20.8a30.13,30.13,0,0,0-9.4,1.8,11.39,11.39,0,0,0-3.8,2.3,3.36,3.36,0,0,0-1.1,2.8,3.6,3.6,0,0,0,1.3,2.3,10,10,0,0,0,3.1,1.9,9.92,9.92,0,0,1,4.5,3.6,2.51,2.51,0,0,1,.4.7,2.94,2.94,0,0,1-.1,3c-.3.5-.6,1-.9,1.4A12.9,12.9,0,0,1,11,42.1a24.43,24.43,0,0,1-2.4,1c-2.2.8-3.7,1-3.6,1.1s3.4,0,3.4,0c18.7-.1,25.8-.1,27.8,0,.2,0,2,.1,2.1-.1s-.3-.1-1.1-.4c-.5-.2-1-.3-1.5-.5A14.06,14.06,0,0,1,32,41.4a14.46,14.46,0,0,1-2.2-2.1,13,13,0,0,1-1-1.5,2.94,2.94,0,0,1-.1-3c.1-.2.3-.5.4-.7a9.67,9.67,0,0,1,4.4-3.6,8.94,8.94,0,0,0,3.1-1.9,3.7,3.7,0,0,0,1.2-2.2A3,3,0,0,0,36.8,23.6Zm-9.4-2.7a31.8,31.8,0,0,1,5.3,1.4,17.53,17.53,0,0,0-2.3,2.4,14.31,14.31,0,0,0-1.1,1.5H29l-.4-.2a23.63,23.63,0,0,0-4.5-.8,9.74,9.74,0,0,1-1.6-.1V20.5A40.45,40.45,0,0,1,27.4,20.9Zm-7.7,9.7a16.41,16.41,0,0,1,2.3-.2v1.2l-4.7-.3A21.72,21.72,0,0,1,19.7,30.6Zm-2.5.2a19.45,19.45,0,0,0-.8-2.2,17.38,17.38,0,0,0-1-1.9,20.63,20.63,0,0,1,6.5-1.1v4.2a15.19,15.19,0,0,0-4.7,1Zm5.2-.3a12.67,12.67,0,0,1,4.7.9l-4.7.3Zm2.5-.3a19.42,19.42,0,0,0-2.4-.2V25.7A20.63,20.63,0,0,1,29,26.8a11.4,11.4,0,0,0-1,1.9,14.27,14.27,0,0,0-.8,2.2,7.5,7.5,0,0,0-2.3-.7ZM17,20.9a28.1,28.1,0,0,1,5-.4v4.6a7.12,7.12,0,0,0-1.6.1,23.63,23.63,0,0,0-4.5.8l-.5.2-.2.1c-.4-.5-.8-1.1-1.2-1.5a17.53,17.53,0,0,0-2.3-2.4A24.62,24.62,0,0,1,17,20.9Zm-5.1,9c-.1,0-.2-.1-.4-.1a8.25,8.25,0,0,1-3.2-2A2.33,2.33,0,0,1,8,24.6l.1-.1a5.44,5.44,0,0,1,3.1-2c.7.6,1.4,1.3,2.1,2a23.07,23.07,0,0,1,1.4,1.9,6.37,6.37,0,0,0-1.8,1,3.27,3.27,0,0,0-1.1,1.5,3.4,3.4,0,0,0,.1,1Zm.8.3c-.1,0-.2-.1-.3-.2s-.1-.2-.1-.4v-.3a1.22,1.22,0,0,1,.4-.9,5.65,5.65,0,0,1,2.4-1.6,8.79,8.79,0,0,1,.6,1c.2.4.2.5.5,1.1a6.36,6.36,0,0,1,.6,1.8V31c-.1,0-.2.1-.3.1a6.47,6.47,0,0,1-2-.4,7.14,7.14,0,0,1-1.8-.5ZM9,43.9H9l2.1-1.1a1.08,1.08,0,0,0,0,1.1Zm24.2-1.1,2.1,1v.1H33.2a1.08,1.08,0,0,0,0-1.1Zm-1.7-.7a2.09,2.09,0,0,1,.6.4,1.15,1.15,0,0,1,.6.9,2,2,0,0,1-.1.7H22.2c-1.5,0-5.1.1-10,0h-.4a1.48,1.48,0,0,1-.1-.7,1.46,1.46,0,0,1,.6-.9l.6-.3,1.9-1.3a3.49,3.49,0,0,0,1.5,1.2,13.41,13.41,0,0,0,4.4,1c.5,0,1,.1,1.5.1a7.57,7.57,0,0,0,1.5-.1,13.41,13.41,0,0,0,4.4-1,3.49,3.49,0,0,0,1.5-1.2l1.9,1.2ZM28.6,40c.1.2.2.3,0,.4a3.11,3.11,0,0,1-.9.7,9,9,0,0,1-3.2.9,20.08,20.08,0,0,1-4.9,0,9,9,0,0,1-3.2-.9,5.5,5.5,0,0,1-.9-.7.3.3,0,0,1,0-.4c.3-.3.5-.6.7-.8l.6-.9a6,6,0,0,0,2.1.8,15.15,15.15,0,0,0,6,0,4.85,4.85,0,0,0,2.1-.8l.6.9a8.74,8.74,0,0,1,1,.8Zm-1.4-3.2c0,.1-.1.2-.1.3a3.7,3.7,0,0,1-1.8.8,15.46,15.46,0,0,1-3.1.4,11,11,0,0,1-3.1-.4,3.7,3.7,0,0,1-1.8-.8.37.37,0,0,1-.1-.3,2,2,0,0,0-.2-1.3c0-.1,0-.2-.1-.2a23.51,23.51,0,0,0,5.3.9,18.9,18.9,0,0,0,5.3-.8c0,.1,0,.1-.1.2A2.34,2.34,0,0,0,27.2,36.8Zm1-3.3a2.18,2.18,0,0,1-.9.7A13.23,13.23,0,0,1,24,35a10.87,10.87,0,0,1-1.8.1,10.87,10.87,0,0,1-1.8-.1,12.26,12.26,0,0,1-3.3-.8,2.76,2.76,0,0,1-.9-.7c-.5-.6-1-1.2-1.5-1.7a38.08,38.08,0,0,0,7.5.7,47.56,47.56,0,0,0,7.5-.7c-.5.6-1,1.1-1.5,1.7Zm3.9-3.9a.6.6,0,0,1-.1.4c-.1.1-.2.2-.3.2-.6.2-1.8.5-1.8.5a11.8,11.8,0,0,1-2,.4.37.37,0,0,1-.3-.1v-.3l.6-1.8a11.73,11.73,0,0,1,.5-1.1c.3-.5.4-.7.6-1a6.33,6.33,0,0,1,2.4,1.6,1.4,1.4,0,0,1,.3.9.77.77,0,0,1,.1.3Zm4-1.8a8.25,8.25,0,0,1-3.2,2c-.1,0-.2.1-.4.1a1.7,1.7,0,0,0,0-1,3.27,3.27,0,0,0-1.1-1.5,5.24,5.24,0,0,0-1.8-1,9.51,9.51,0,0,1,1.5-2,13.36,13.36,0,0,1,2.1-2,5.79,5.79,0,0,1,3.1,2,2.27,2.27,0,0,1,.6,1.6,2.5,2.5,0,0,1-.8,1.8Z" transform="translate(0)"/>
  <ellipse class="cls-2" cx="22" cy="7.4" rx="2.4" ry="2.5"/>
  <path class="cls-3" d="M3.6.7H40.4a2.9,2.9,0,0,1,2.9,2.9v38a2.9,2.9,0,0,1-2.9,2.9H3.6A2.9,2.9,0,0,1,.7,41.6V3.6A2.9,2.9,0,0,1,3.6.7Z" transform="translate(0)"/>
</svg>
