<?xml version="1.0" encoding="utf-8"?>
<!-- Generator: Adobe Illustrator 26.0.2, SVG Export Plug-In . SVG Version: 6.00 Build 0)  -->
<svg version="1.1" id="Layer_1" xmlns="http://www.w3.org/2000/svg" xmlns:xlink="http://www.w3.org/1999/xlink" x="0px" y="0px"
	 viewBox="0 0 43.9 45.1" style="enable-background:new 0 0 43.9 45.1;" xml:space="preserve">
<style type="text/css">
	.st0{fill:#FFFFFF;stroke:#FFFFFF;stroke-width:0.3;stroke-miterlimit:10;}
	.st1{fill:#FFFFFF;}
	.st2{fill:none;stroke:#FFFFFF;stroke-width:1.4;stroke-miterlimit:10;}
</style>
<path class="st0" d="M36.8,23.6c-1.1-1-2.4-1.8-3.8-2.3c-3-1.1-6.2-1.7-9.4-1.8h-1.4c-0.5,0-0.9,0-1.4,0c-3.2,0.1-6.4,0.7-9.4,1.8
	c-1.4,0.5-2.7,1.3-3.8,2.3c-0.8,0.7-1.2,1.8-1.1,2.8c0.1,0.9,0.6,1.7,1.3,2.3c0.9,0.8,2,1.5,3.1,1.9c1.8,0.7,3.4,2,4.5,3.6
	c0.2,0.2,0.3,0.5,0.4,0.7c0.5,0.9,0.5,2.1-0.1,3c-0.3,0.5-0.6,1-0.9,1.4c-1.1,1.2-2.4,2.1-3.8,2.8c-0.8,0.4-1.6,0.7-2.4,1
	c-2.2,0.8-3.7,1-3.6,1.1s3.4,0,3.4,0c18.7-0.1,25.8-0.1,27.8,0c0.2,0,2,0.1,2.1-0.1S38,44,37.2,43.7c-0.5-0.2-1-0.3-1.5-0.5
	c-1.3-0.4-2.5-1-3.7-1.8c-0.8-0.6-1.5-1.3-2.2-2.1c-0.4-0.5-0.7-1-1-1.5c-0.6-0.9-0.6-2.1-0.1-3c0.1-0.2,0.3-0.5,0.4-0.7
	c1.1-1.6,2.6-2.9,4.4-3.6c1.2-0.4,2.2-1.1,3.1-1.9c0.6-0.6,1.1-1.3,1.2-2.2C38,25.4,37.6,24.3,36.8,23.6z M27.4,20.9
	c1.8,0.3,3.6,0.8,5.3,1.4c-0.8,0.7-1.6,1.5-2.3,2.4c-0.4,0.5-0.8,1-1.1,1.5l-0.3,0L28.6,26c-1.5-0.4-3-0.7-4.5-0.8
	c-0.4,0-1,0-1.6-0.1v-4.6C24.1,20.5,25.8,20.7,27.4,20.9z M19.7,30.6c0.7-0.1,1.5-0.2,2.3-0.2v1.2l-4.7-0.3
	C18.1,31,18.9,30.8,19.7,30.6z M17.2,30.8c-0.2-0.7-0.5-1.5-0.8-2.2c-0.3-0.6-0.6-1.3-1-1.9c2.1-0.7,4.3-1.1,6.5-1.1v4.2
	C20.3,29.9,18.7,30.2,17.2,30.8L17.2,30.8z M22.4,30.5c1.6,0,3.2,0.3,4.7,0.9l-4.7,0.3C22.4,31.7,22.4,30.5,22.4,30.5z M24.9,30.2
	c-0.8-0.1-1.6-0.2-2.4-0.2v-4.3c2.2,0,4.4,0.4,6.5,1.1c-0.4,0.6-0.7,1.2-1,1.9c-0.3,0.7-0.6,1.4-0.8,2.2
	C26.4,30.5,25.6,30.3,24.9,30.2L24.9,30.2z M17,20.9c1.7-0.3,3.3-0.4,5-0.4v4.6c-0.7,0-1.2,0-1.6,0.1c-1.5,0.1-3,0.4-4.5,0.8
	l-0.5,0.2l-0.2,0.1c-0.4-0.5-0.8-1.1-1.2-1.5c-0.7-0.9-1.5-1.7-2.3-2.4C13.4,21.7,15.2,21.2,17,20.9z M11.9,29.9
	c-0.1,0-0.2-0.1-0.4-0.1c-1.2-0.4-2.3-1.1-3.2-2C7.4,27,7.2,25.6,8,24.6l0.1-0.1c0.8-1,1.8-1.7,3.1-2c0.7,0.6,1.4,1.3,2.1,2
	c0.5,0.6,1,1.3,1.4,1.9c-0.6,0.2-1.3,0.6-1.8,1s-0.9,0.9-1.1,1.5C11.8,29.2,11.8,29.6,11.9,29.9L11.9,29.9z M12.7,30.2
	c-0.1,0-0.2-0.1-0.3-0.2s-0.1-0.2-0.1-0.4c0-0.1,0-0.2,0-0.3c0-0.3,0.1-0.6,0.4-0.9c0.6-0.7,1.5-1.3,2.4-1.6c0.2,0.3,0.4,0.6,0.6,1
	s0.2,0.5,0.5,1.1c0.3,0.6,0.5,1.2,0.6,1.8c0,0.1,0,0.2,0,0.3c-0.1,0-0.2,0.1-0.3,0.1c-0.7,0-1.4-0.2-2-0.4
	C14.4,30.7,13.3,30.5,12.7,30.2L12.7,30.2z M9,43.9L9,43.9l2.1-1.1c-0.2,0.3-0.2,0.8,0,1.1H9z M33.2,42.8l2.1,1v0.1h-2.1
	C33.4,43.5,33.4,43.1,33.2,42.8L33.2,42.8z M31.5,42.1c0.2,0.1,0.4,0.2,0.6,0.4c0.3,0.2,0.6,0.5,0.6,0.9c0,0.2,0,0.4-0.1,0.7
	c-4.6,0-8.1,0-10.4,0c-1.5,0-5.1,0.1-10,0h-0.4c-0.1-0.2-0.1-0.4-0.1-0.7c0.1-0.4,0.3-0.7,0.6-0.9c0.2-0.1,0.4-0.2,0.6-0.3l1.9-1.3
	c0.4,0.5,0.9,1,1.5,1.2c1.4,0.6,2.9,0.9,4.4,1c0.5,0,1,0.1,1.5,0.1s1,0,1.5-0.1c1.5-0.1,3-0.4,4.4-1c0.6-0.2,1.1-0.7,1.5-1.2
	L31.5,42.1L31.5,42.1z M28.6,40c0.1,0.2,0.2,0.3,0,0.4c-0.3,0.3-0.5,0.5-0.9,0.7c-1,0.5-2.1,0.8-3.2,0.9c-1.6,0.2-3.3,0.2-4.9,0
	c-1.1-0.1-2.2-0.4-3.2-0.9c-0.3-0.2-0.6-0.4-0.9-0.7c-0.1-0.1-0.1-0.3,0-0.4c0.3-0.3,0.5-0.6,0.7-0.8c0.2-0.3,0.4-0.6,0.6-0.9
	c0.7,0.4,1.4,0.7,2.1,0.8c1,0.2,2,0.3,3,0.3s2-0.1,3-0.3c0.8-0.1,1.5-0.4,2.1-0.8c0.2,0.3,0.4,0.6,0.6,0.9
	C28,39.5,28.3,39.7,28.6,40L28.6,40z M27.2,36.8c0,0.1-0.1,0.2-0.1,0.3c-0.5,0.4-1.1,0.7-1.8,0.8c-1,0.2-2,0.4-3.1,0.4
	c-1,0-2.1-0.1-3.1-0.4c-0.7-0.1-1.3-0.4-1.8-0.8c-0.1-0.1-0.1-0.2-0.1-0.3c0.1-0.4,0-0.9-0.2-1.3c0-0.1,0-0.2-0.1-0.2
	c1.7,0.5,3.5,0.8,5.3,0.9c1.8,0,3.6-0.3,5.3-0.8c0,0.1,0,0.1-0.1,0.2C27.2,35.9,27.2,36.4,27.2,36.8z M28.2,33.5
	c-0.2,0.3-0.5,0.5-0.9,0.7c-1.1,0.4-2.2,0.7-3.3,0.8c-0.6,0.1-1.2,0.1-1.8,0.1s-1.2,0-1.8-0.1c-1.1-0.1-2.3-0.4-3.3-0.8
	c-0.3-0.1-0.6-0.4-0.9-0.7c-0.5-0.6-1-1.2-1.5-1.7c2.5,0.5,5,0.7,7.5,0.7s5-0.3,7.5-0.7C29.2,32.4,28.7,32.9,28.2,33.5L28.2,33.5z
	 M32.1,29.6c0,0.1,0,0.3-0.1,0.4s-0.2,0.2-0.3,0.2c-0.6,0.2-1.8,0.5-1.8,0.5c-0.6,0.2-1.3,0.3-2,0.4c-0.1,0-0.2,0-0.3-0.1
	c0-0.1,0-0.2,0-0.3c0.2-0.6,0.4-1.2,0.6-1.8c0.3-0.6,0.2-0.6,0.5-1.1s0.4-0.7,0.6-1c0.9,0.3,1.7,0.9,2.4,1.6
	c0.2,0.2,0.3,0.6,0.3,0.9C32.1,29.5,32.1,29.6,32.1,29.6L32.1,29.6z M36.1,27.8c-0.9,0.9-2,1.6-3.2,2c-0.1,0-0.2,0.1-0.4,0.1
	c0.1-0.3,0.1-0.7,0-1c-0.2-0.6-0.6-1.1-1.1-1.5s-1.1-0.8-1.8-1c0.4-0.7,0.9-1.4,1.5-2c0.6-0.7,1.3-1.4,2.1-2c1.2,0.3,2.3,1,3.1,2
	c0.4,0.4,0.6,1,0.6,1.6C36.9,26.7,36.6,27.3,36.1,27.8L36.1,27.8z"/>
<ellipse class="st1" cx="22" cy="7.4" rx="2.4" ry="2.5"/>
<path class="st2" d="M3.6,0.7h36.8c1.6,0,2.9,1.3,2.9,2.9v38c0,1.6-1.3,2.9-2.9,2.9H3.6c-1.6,0-2.9-1.3-2.9-2.9v-38
	C0.7,2,2,0.7,3.6,0.7z"/>
</svg>
