<?xml version="1.0" encoding="utf-8"?>
<!-- Generator: Adobe Illustrator 26.0.2, SVG Export Plug-In . SVG Version: 6.00 Build 0)  -->
<svg version="1.1" id="Layer_1" xmlns="http://www.w3.org/2000/svg" xmlns:xlink="http://www.w3.org/1999/xlink" x="0px" y="0px"
	 viewBox="0 0 343.1 356.4" style="enable-background:new 0 0 343.1 356.4;" xml:space="preserve">
<style type="text/css">
	.st0{stroke:#000000;stroke-width:2;stroke-miterlimit:10;}
	.st1{fill:none;stroke:#000000;stroke-width:8;stroke-miterlimit:10;}
</style>
<path class="st0" d="M286.2,190.1c-8.3-7.8-18.1-13.8-28.9-17.5c-23.1-8.3-47.3-12.8-71.8-13.4h-21.2c-24.5,0.5-48.7,5-71.7,13.4
	c-10.8,3.7-20.6,9.7-29,17.5c-6.1,5.4-9.2,13.3-8.5,21.4c1,6.8,4.4,13.1,9.7,17.6c7,6.3,15.1,11.3,23.8,14.7
	c13.8,5.7,25.7,15.4,34.1,27.8c1.2,1.8,2.3,3.7,3.2,5.7c4.1,7.2,3.8,16-0.7,22.9c-2,3.8-4.5,7.4-7.3,10.7
	c-8.4,8.9-18.4,16.2-29.4,21.5c-5.8,3-11.9,5.5-18,7.6c-16.4,6.3-28,7.6-27.8,8.6c8.7,0.5,17.3,0.5,26,0
	c142.6-0.8,197.3-0.5,212.4,0c1.4,0,15.3,0.6,15.7-0.8c0.5-1.4-2.1-1.1-8.5-3.1c-3.8-1.1-7.6-2.5-11.5-3.7
	c-10-3.1-19.4-7.8-27.9-13.8c-6.1-4.7-11.7-10.2-16.5-16.3c-3-3.5-5.5-7.4-7.6-11.5c-4.5-6.9-4.8-15.7-0.8-22.9
	c1.1-1.9,2.1-3.9,3.3-5.7c8.4-12.4,20.2-22.1,34-27.8c8.8-3.4,16.9-8.3,23.9-14.7c5-4.4,8.3-10.3,9.4-16.8
	C295.5,203.4,292.3,195.5,286.2,190.1z M214.9,169.6c13.8,2.3,27.4,5.8,40.6,10.4c-6.5,5.6-12.4,11.7-17.9,18.3
	c-3.1,3.8-6,7.6-8.8,11.8l-1.5-0.5l-3.7-1.3c-11.3-3.1-22.8-5.2-34.5-6.2c-3.1,0-7.6,0-12.5-0.5v-35.2
	C189.4,166.6,202.2,167.6,214.9,169.6z M155.9,243.7c5.7-1,11.5-1.5,17.3-1.6v9.5l-35.7-1.8C143.4,247.1,149.6,245.1,155.9,243.7z
	 M136.7,244.9c-1.5-5.6-3.5-11.2-5.8-16.5c-2.2-4.9-4.8-9.6-7.6-14.1c16-5.7,32.8-8.6,49.8-8.6v32.2c-12.5,0.1-24.9,2.4-36.5,7
	L136.7,244.9z M176.8,242.1c12.3,0.1,24.4,2.6,35.8,7.1l-35.8,2.4V242.1z M195.3,239.8c-6.1-1.1-12.2-1.7-18.4-1.8v-32.2
	c16.9,0,33.8,2.9,49.7,8.6c-2.9,4.5-5.4,9.2-7.6,14.1c-2.4,5.3-4.3,10.9-5.8,16.5c-5.9-2.3-12-4-18.2-5.2L195.3,239.8z M135.6,169.6
	c12.6-2,25.4-3,38.2-3.1v35.3c-4.2-0.1-8.3,0-12.5,0.5c-11.6,0.9-23.1,3-34.3,6.2l-3.7,1.3l-1.5,0.5c-2.8-4-5.9-8-9.1-11.8
	c-5.4-6.6-11.4-12.8-17.8-18.4C108.1,175.4,121.7,172,135.6,169.6z M96,238.4c-1-0.1-1.9-0.5-2.8-1c-9-3.4-17.3-8.6-24.2-15.3
	c-7.3-6.1-8.3-16.9-2.2-24.2c0,0,0,0,0,0l0.8-0.9c5.9-7.5,14.1-12.9,23.4-15.3c5.7,4.7,11,9.8,15.8,15.3c4,4.6,7.7,9.4,11.1,14.5
	c-4.9,1.8-9.5,4.3-13.6,7.6c-4,2.7-6.9,6.7-8.5,11.2c-0.6,2.5-0.6,5.1,0,7.6L96,238.4z M102.6,240.8c-0.9-0.2-1.6-0.8-2.1-1.5
	c-0.5-0.9-0.8-1.8-0.8-2.8c-0.1-0.7-0.1-1.3,0-2c0.2-2.5,1.1-4.8,2.7-6.7c5-5.4,11.1-9.7,18-12.4c1.6,2.4,3,5,4.3,7.6
	c1.3,2.8,1.5,3.6,3.8,8.4c2,4.3,3.7,8.8,4.9,13.4c0.2,0.7,0.2,1.4,0,2.1c-0.7,0.4-1.4,0.6-2.2,0.6c-5.2-0.3-10.3-1.4-15.3-3.1
	c0,0-8.6-2.1-13.6-4L102.6,240.8z M74.5,344.9v-0.5l16.1-7.6c-1.5,2.6-1.5,5.8,0,8.4L74.5,344.9z M259,336.6l16.1,7.6v0.5h-16
	c1.5-2.6,1.5-5.9,0-8.5L259,336.6z M245.8,331.2c1.5,0.7,3,1.6,4.4,2.5c2.4,1.7,4.2,4.2,4.9,7c0.3,1.7,0.1,3.4-0.6,5H175
	c-11.4,0-39,0.5-76.4,0h-3.1c-0.7-1.6-0.9-3.3-0.7-5c0.7-2.9,2.5-5.4,4.9-7c1.4-1,2.8-1.8,4.4-2.5l14.2-10.3
	c2.7,4.2,6.7,7.5,11.4,9.3c10.7,4.6,22.2,7.2,33.9,7.6c3.8,0,7.6,0.5,11.4,0.5c3.8,0.1,7.6-0.1,11.4-0.5c11.7-0.5,23.2-3.1,33.9-7.6
	c4.7-1.9,8.7-5.1,11.5-9.3L245.8,331.2z M223.7,315.4c1.1,1.1,1.5,2.2,0,3.2c-1.9,2-4.1,3.7-6.5,5.1c-7.7,3.7-16,5.9-24.4,6.7
	c-12.5,1.8-25.2,1.8-37.7,0c-8.5-0.7-16.8-3-24.4-6.7c-2.4-1.4-4.6-3.1-6.6-5.1c-1.1-1-0.7-2.1,0-3.2c1.9-2,3.8-4.2,5.4-6.5
	c1.6-2.2,3.1-4.5,4.4-7c5,3,10.6,5.1,16.3,6.1c15.4,3.3,31.2,3.3,46.6,0c5.8-1,11.3-3.1,16.3-6.1c1.5,2.4,2.7,4.7,4.3,7
	c1.7,2.3,3.5,4.5,5.5,6.5H223.7z M213.2,290.8c0,0.9-0.4,1.7-1.1,2.3c-4,3.2-8.7,5.3-13.8,6.1c-7.6,1.9-15.5,2.9-23.4,3
	c-7.9,0-15.8-1-23.5-3c-5-0.9-9.7-3-13.8-6.1c-0.7-0.6-1.1-1.4-1.1-2.3c0.4-3.3-0.1-6.7-1.5-9.8c-0.1-0.6-0.3-1.1-0.5-1.7
	c13.1,4.1,26.7,6.3,40.4,6.6c13.7-0.2,27.2-2.4,40.3-6.5c0.1,0.6-0.1,1.2-0.5,1.7C213.4,284.2,212.9,287.5,213.2,290.8z
	 M220.9,265.9c-1.7,2.3-3.9,4-6.6,5c-8.2,3.3-16.8,5.3-25.5,6c-4.6,0.5-9.2,0.8-13.8,0.9c-4.7,0.2-9.3-0.1-13.9-0.9
	c-8.7-0.7-17.3-2.8-25.4-6c-2.6-1-4.9-2.8-6.6-5c-3.6-4.6-7.6-8.9-11.5-13.3c18.9,3.6,38.2,5.4,57.5,5.6c19.3-0.1,38.5-2,57.5-5.6
	C228.6,257,224.8,261.3,220.9,265.9L220.9,265.9z M250.6,236c0,1-0.2,2-0.7,2.9c-0.5,0.7-1.3,1.3-2.2,1.5
	c-4.9,1.6-13.4,3.7-13.4,3.7c-5,1.6-10.1,2.6-15.3,3c-0.8,0-1.5-0.3-2.2-0.6c-0.2-0.7-0.2-1.4,0-2.1c1.3-4.6,2.9-9.1,5-13.4
	c2.3-4.8,1.9-4.7,3.7-8.3c1.8-3.6,3.1-5.5,4.4-7.6c6.8,2.6,12.9,6.6,18,11.8c1.5,1.9,2.4,4.2,2.7,6.6c0,1,0,2,0,2.3V236z
	 M281.1,222.1c-6.9,6.7-15.2,11.9-24.2,15.3c-1,0.2-1.9,0.5-2.8,1c0.5-2.5,0.5-5.1,0-7.6c-1.6-4.7-4.6-8.7-8.6-11.6
	c-4.1-3.3-8.7-5.9-13.6-7.6c3.4-5.4,7.2-10.5,11.3-15.3c4.9-5.5,10.2-10.6,15.8-15.3c9.3,2.4,17.5,7.8,23.4,15.3
	c3,3.4,4.8,7.8,4.9,12.4c-0.3,4.9-2.5,9.5-6.1,12.8L281.1,222.1z"/>
<ellipse cx="173.2" cy="66.5" rx="18.4" ry="18.9"/>
<path class="st1" d="M38.6,15.1h269.3c15.4,0,27.8,12.5,27.8,27.8v278.5c0,15.4-12.5,27.8-27.8,27.8H38.6
	c-15.4,0-27.8-12.5-27.8-27.8V42.9C10.8,27.5,23.2,15.1,38.6,15.1z"/>
</svg>
