<svg id="Layer_1" data-name="Layer 1" xmlns="http://www.w3.org/2000/svg" viewBox="0 0 335 355">
  <defs>
    <style>
      .cls-1 {
        fill: #fff;
        stroke-width: 13px;
      }

      .cls-1, .cls-2 {
        stroke: #000;
        stroke-miterlimit: 10;
      }

      .cls-2 {
        stroke-width: 3px;
      }
    </style>
  </defs>
  <path class="cls-1" d="M-675.91-77.5H-409c15.25,0,27.54,12.79,27.54,28.48V236c0,15.69-12.29,28.48-27.54,28.48H-675.91c-15.26,0-27.54-12.79-27.54-28.48V-49C-703.45-64.71-691.17-77.5-675.91-77.5Z" transform="translate(709.95 84)"/>
  <path class="cls-2" d="M-426.31,255.34c-3.74-1.21-7.47-2.63-11.21-3.84a95.18,95.18,0,0,1-27.29-14.35A91.55,91.55,0,0,1-481,220.27a59.76,59.76,0,0,1-7.48-11.82,23.74,23.74,0,0,1-.7-23.75,55,55,0,0,1,3.23-5.86A76.35,76.35,0,0,1-452.68,150a75.33,75.33,0,0,0,23.44-15.16A30.8,30.8,0,0,0-420,117.5a28.1,28.1,0,0,0-8.59-22.13,77.9,77.9,0,0,0-28.3-18.09,213.36,213.36,0,0,0-70.33-13.85H-548a207.44,207.44,0,0,0-70.24,13.85,79,79,0,0,0-28.39,18.09,27,27,0,0,0-8.29,22.13,29.69,29.69,0,0,0,9.5,18.19,76.71,76.71,0,0,0,23.34,15.16,75.88,75.88,0,0,1,33.35,28.8,46,46,0,0,1,3.14,5.86,24,24,0,0,1-.71,23.75,66.94,66.94,0,0,1-7.08,11.12,97.49,97.49,0,0,1-28.8,22.23,143.71,143.71,0,0,1-17.58,7.88c-16.07,6.47-27.39,7.88-27.19,8.89a212.19,212.19,0,0,0,25.47,0c139.56-.8,193.22-.5,208,0,1.31,0,15,.61,15.46-.8S-420,257.46-426.31,255.34Zm-48.21-109c-6.31,7.72-15.65,9.44-19.31,9.91a137,137,0,0,1,9.66-27.41q1.56-3.24,3.27-6.36c6.84,4.44,10.63,9.57,10.63,14.56C-470.27,141.23-472.85,144.26-474.52,146.3Zm21.63-59.1c14.71,7.67,23.5,17.38,23.5,27.94,0,13.87-15.16,26.27-39,34.51,3.21-3.9,5-8.16,5-12.65,0-7.73-5.2-14.78-14.08-20.46A132.32,132.32,0,0,1-452.89,87.2Zm-80.65-16.94c30.23.42,57.32,6,76.35,14.63a136.88,136.88,0,0,0-24.09,29.19c-12.78-6.74-31.27-11-52.26-11.32Zm0,39.37c20.68.31,37.63,4.51,48.83,10.35q-1.8,3.28-3.44,6.69a142.25,142.25,0,0,0-10.33,29.82c-5.84-7.12-20.41-11.17-35.06-11.76Zm0,42c8.3.33,16,1.79,21.87,4.19a27.92,27.92,0,0,1,4.81,2.45A252.1,252.1,0,0,1-533.54,160ZM-539,70.24v32.52c-22.07.33-41.39,5-54.21,12.38a136.29,136.29,0,0,0-24.68-30.21C-598.31,76-570.23,70.38-539,70.24Zm-37.64,86.29a141.48,141.48,0,0,0-10.34-29.86c-.91-1.9-1.87-3.76-2.85-5.6,11.13-6.4,28.88-11.11,50.83-11.44v35C-554.47,144.87-570.45,149-576.61,156.53Zm37.64-5V160a252.7,252.7,0,0,1-29.21-1.8,28.8,28.8,0,0,1,4.79-2.44C-556.88,153.16-548.24,151.67-539,151.55Zm-107-36.41c0-10.54,8.76-20.23,23.42-27.89a131.54,131.54,0,0,1,25.28,30.52c-7.75,5.45-12.23,12-12.23,19.23,0,4.93,2.12,9.59,6,13.78C-629.33,142.58-646,129.66-646,115.14ZM-602.62,137c0-4.51,3.1-9.13,8.74-13.26q1.33,2.49,2.57,5a137.18,137.18,0,0,1,9.66,27.4l-2.68-.52C-595.95,150.48-602.62,143.62-602.62,137Zm17.53,34.49s.06,0,.1,0a60.3,60.3,0,0,0-5.8-6c-.4-.31-.76-.62-1.09-.93h0l1.26.31c.26.07.5.1.76.17s.8.17,1.23.27a235.87,235.87,0,0,0,50.91,5.28c.86,0,1.69,0,2.52,0,9.37-.1,17.35-.68,23.08-1.23,4.15-.41,8.15-.92,12.06-1.54,6.69-1.06,12.32-2.26,16.53-3.25a17.07,17.07,0,0,1-1.22,1.2s-.07,0-.1,0c-1.66,1.61-3.41,3.49-5.2,5.61a69.34,69.34,0,0,0-7,10.11,32.84,32.84,0,0,1-4.84,2.73c-.17.07-.33.18-.5.24a49,49,0,0,1-8.44,3c-1.1.27-2.22.55-3.35.79a106.09,106.09,0,0,1-23.42,2.49A110.09,110.09,0,0,1-558,189a57.89,57.89,0,0,1-10.33-2.71,39.64,39.64,0,0,1-9.74-4.72c-.93-1.72-2-3.43-3.08-5.14A59.47,59.47,0,0,0-585.09,171.49Zm87.39,31.39c-4.32,5.72-19.34,10.8-40.12,10.8s-35.8-5.19-40.12-10.8a22.61,22.61,0,0,0,.37-3.38,27.07,27.07,0,0,0-2.73-10.62c10.19,4.67,25.47,7.52,42.52,7.52s32.4-2.85,42.44-7.52a26.94,26.94,0,0,0-2.73,10.62A22.61,22.61,0,0,0-497.7,202.88Zm-88.76,18.5a46.56,46.56,0,0,0,7.6-13.79c6.87,6.11,22.44,10.25,41.11,10.25s34.25-4.14,41.12-10.25a51.26,51.26,0,0,0,7.6,13.79c.88,1.22,1.92,2.33,2.91,3.55-.37,8.55-21,17.69-51.66,17.69s-51.3-9.14-51.67-17.69C-588.45,223.71-587.46,222.6-586.46,221.38ZM-621.61,255H-639a90.31,90.31,0,0,1,12.33-6.53c1.81-.84,3.47-1.6,5.09-2.48a14.54,14.54,0,0,0-.74,4.47A14.63,14.63,0,0,0-621.61,255Zm157.83,0H-613.95a10.27,10.27,0,0,1-.95-4.21,10.72,10.72,0,0,1,2.54-6.75c2.66-1.53,5.13-3,7.35-4.5a78.44,78.44,0,0,0,11.62-10.07c3.84,10.43,26.39,18.24,54.4,18.24s50.45-7.81,54.39-18.24a71.28,71.28,0,0,0,11.81,10.07,76.52,76.52,0,0,0,7.35,4.5,11.42,11.42,0,0,1,2.54,6.75A11.42,11.42,0,0,1-463.78,255Zm6.15,0a14.81,14.81,0,0,0,.73-4.54,15.21,15.21,0,0,0-.73-4.47c1.66.88,3.28,1.64,5.13,2.48A89.57,89.57,0,0,1-440.18,255Z" transform="translate(709.95 84)"/>
  <circle cx="167.5" cy="57.04" r="17.5"/>
</svg>
