<svg id="Layer_1" data-name="Layer 1" xmlns="http://www.w3.org/2000/svg" width="309" height="335" viewBox="0 0 309 335">
  <defs>
    <style>
      .cls-1, .cls-2 {
        stroke: #000;
        stroke-miterlimit: 10;
      }

      .cls-1 {
        stroke-width: 3px;
      }

      .cls-2 {
        fill: none;
        stroke-width: 13px;
      }
    </style>
  </defs>
  <g>
    <path class="cls-1" d="M273.9,186.56a72.94,72.94,0,0,0-26.33-16.88,198.35,198.35,0,0,0-65.49-12.9h-19.3a193.47,193.47,0,0,0-65.41,12.9A73.56,73.56,0,0,0,71,186.56a25.23,25.23,0,0,0-7.73,20.63,27.63,27.63,0,0,0,8.84,16.95,70.39,70.39,0,0,0,21.74,14.15,70.68,70.68,0,0,1,31.07,26.83,45.18,45.18,0,0,1,2.92,5.45,22.34,22.34,0,0,1-.63,22.11A60.81,60.81,0,0,1,120.56,303a90.21,90.21,0,0,1-26.81,20.7,126.93,126.93,0,0,1-16.42,7.37c-15,6-25.53,7.37-25.36,8.25a208.38,208.38,0,0,0,23.71,0c130-.73,179.94-.51,193.66,0,1.26,0,13.94.59,14.36-.73s-1.88-1-7.74-3c-3.48-1.1-7-2.43-10.45-3.53a90.18,90.18,0,0,1-25.42-13.34,88.78,88.78,0,0,1-15-15.69,59.24,59.24,0,0,1-7-11.06,22.34,22.34,0,0,1-.7-22.11c1-1.84,1.88-3.76,3-5.46a70.72,70.72,0,0,1,31-26.82,69.15,69.15,0,0,0,21.81-14.14,28.29,28.29,0,0,0,8.57-16.22A25.57,25.57,0,0,0,273.9,186.56Zm-66.35-20.34a195.66,195.66,0,0,1,34.9,10,145.11,145.11,0,0,0-15.39,17.7,130.35,130.35,0,0,0-7.55,11.42l-1.31-.52L215,203.56a144.41,144.41,0,0,0-29.64-6,101.64,101.64,0,0,1-10.78-.44v-34A199.9,199.9,0,0,1,207.55,166.22ZM155.17,237.6a89.39,89.39,0,0,1,15.38-1.54v9.13l-31.77-1.76a80.71,80.71,0,0,1,16.41-5.8ZM138,238.78a117.08,117.08,0,0,0-5.21-15.92,112.74,112.74,0,0,0-6.85-13.63A125.89,125.89,0,0,1,170.55,201v31a85,85,0,0,0-32.73,6.75Zm36.6-2.72a80.28,80.28,0,0,1,31.34,6.85l-31.34,2.28Zm15.71-2.23a86.6,86.6,0,0,0-15.71-1.77V201A114.16,114.16,0,0,1,217,209.26a115.94,115.94,0,0,0-6.52,13.62,110.74,110.74,0,0,0-4.95,15.91,84.07,84.07,0,0,0-15.52-5Zm-54.17-67.64a217.68,217.68,0,0,1,34.46-3v34.05a81.06,81.06,0,0,0-11.23.44,148.41,148.41,0,0,0-31,6L125,204.91l-1.38.52c-2.54-3.86-5.3-7.71-8.2-11.43a153.3,153.3,0,0,0-16-17.79,214,214,0,0,1,36.74-10ZM99.66,232.55a5.8,5.8,0,0,1-2.44-.92,62,62,0,0,1-21.53-14,16.13,16.13,0,0,1-2-22.21h0l.75-.84a38.32,38.32,0,0,1,20.78-14,121.93,121.93,0,0,1,14.08,14,123.44,123.44,0,0,1,9.85,13.32,40.75,40.75,0,0,0-12.09,7,20.64,20.64,0,0,0-7.53,10.31,16.25,16.25,0,0,0,0,7Zm6.75,2.22a3.59,3.59,0,0,1-2-1.49,5.47,5.47,0,0,1-.7-2.75,9.08,9.08,0,0,1,0-1.95A12.42,12.42,0,0,1,106.2,222,43.83,43.83,0,0,1,122.62,210a61.89,61.89,0,0,1,3.9,7.44c1.18,2.75,1.39,3.5,3.48,8.18a80.55,80.55,0,0,1,4.46,13.1,3.51,3.51,0,0,1,0,2.08,5,5,0,0,1-2,.59,50,50,0,0,1-13.94-3s-7.87-2.08-12.4-3.89ZM80.55,335.56V335l14.7-7.37a8.41,8.41,0,0,0,0,8.11Zm168.31-8.67,14.69,7.37v.52H249a8.54,8.54,0,0,0,0-8.18Zm-11.81-5.11a28.9,28.9,0,0,1,4,2.43,11.68,11.68,0,0,1,4.46,6.75,8.63,8.63,0,0,1-.56,4.82H172.46c-10.38,0-35.56.45-69.67,0h-2.73a9.12,9.12,0,0,1-.63-4.82,11.68,11.68,0,0,1,4.46-6.75,28.8,28.8,0,0,1,4-2.43l13-9.95a22.42,22.42,0,0,0,10.39,9,83.39,83.39,0,0,0,30.93,7.37c3.48,0,7,.45,10.37.52a61.06,61.06,0,0,0,10.38-.52,83.44,83.44,0,0,0,30.94-7.37,22.53,22.53,0,0,0,10.44-9Zm-20.2-14.95c1,1.11,1.32,2.13,0,3.1a28,28,0,0,1-5.93,4.94,63,63,0,0,1-22.29,6.48,116.32,116.32,0,0,1-34.35,0A61.58,61.58,0,0,1,132,314.87a30.07,30.07,0,0,1-6-4.94c-1-1-.62-2.07,0-3.1a61.32,61.32,0,0,0,4.95-6.26,59.09,59.09,0,0,0,4-6.75,41.16,41.16,0,0,0,14.91,5.9,97,97,0,0,0,42.49,0,41.58,41.58,0,0,0,14.91-5.82c1.33,2.28,2.44,4.57,3.9,6.75a54.18,54.18,0,0,0,5,6.26ZM207.3,283.1a2.84,2.84,0,0,1-1.05,2.21,27.06,27.06,0,0,1-12.54,5.89,86.86,86.86,0,0,1-21.32,2.9A83.65,83.65,0,0,1,151,291.2a28.44,28.44,0,0,1-12.54-5.89,3.2,3.2,0,0,1-1.05-2.21,19,19,0,0,0-1.32-9.43,6.44,6.44,0,0,0-.48-1.62,123.15,123.15,0,0,0,36.84,6.33,122,122,0,0,0,36.71-6.26,2.28,2.28,0,0,1-.48,1.62,19.55,19.55,0,0,0-1.39,9.36Zm7-24.32a13.56,13.56,0,0,1-6,4.87A77.27,77.27,0,0,1,185,269.44a121.44,121.44,0,0,1-12.62.89,56.36,56.36,0,0,1-12.7-.84,77.43,77.43,0,0,1-23.2-5.79,13.47,13.47,0,0,1-6-4.92c-3.27-4.41-7-8.54-10.45-12.82a278.94,278.94,0,0,0,52.4,5.39A278.64,278.64,0,0,0,224.84,246c-3.48,4.28-7,8.41-10.51,12.82Zm27.28-28.55a6.1,6.1,0,0,1-.62,2.8,3.73,3.73,0,0,1-2,1.48c-4.46,1.55-12.19,3.61-12.19,3.61a57,57,0,0,1-13.93,2.9,4.87,4.87,0,0,1-2-.6,3.45,3.45,0,0,1,0-2.06,86.32,86.32,0,0,1,4.56-13c2.09-4.64,1.74-4.57,3.41-8s2.86-5.3,4-7.37a46,46,0,0,1,16.41,11.36,12.54,12.54,0,0,1,2.44,6.4Zm27.68-13.41a63.45,63.45,0,0,1-22.08,14.74,8.83,8.83,0,0,0-2.51,1,19,19,0,0,0,0-7.37,22.68,22.68,0,0,0-7.8-11.2,41,41,0,0,0-12.41-7.37,131,131,0,0,1,10.32-14.74,139.74,139.74,0,0,1,14.42-14.67,39.59,39.59,0,0,1,21.31,14.74,19.54,19.54,0,0,1,4.46,11.93,18.68,18.68,0,0,1-5.57,12.39Z" transform="translate(-17.05 -10.28)"/>
    <ellipse cx="153.74" cy="56.45" rx="16.79" ry="18.2"/>
    <path class="cls-2" d="M48.89,16.78H294.22c14,0,25.33,12,25.33,26.82V312c0,14.8-11.33,26.8-25.32,26.8H48.89c-14,0-25.34-12-25.34-26.81V43.6C23.55,28.79,34.9,16.78,48.89,16.78Z" transform="translate(-17.05 -10.28)"/>
  </g>
</svg>
