<?xml version="1.0" encoding="utf-8"?>
<!-- Generator: Adobe Illustrator 26.0.2, SVG Export Plug-In . SVG Version: 6.00 Build 0)  -->
<svg version="1.1" id="Layer_1" xmlns="http://www.w3.org/2000/svg" xmlns:xlink="http://www.w3.org/1999/xlink" x="0px" y="0px"
	 viewBox="0 0 343.1 356.4" style="enable-background:new 0 0 343.1 356.4;" xml:space="preserve">
<style type="text/css">
	.st0{fill:none;stroke:#000000;stroke-width:13;stroke-miterlimit:10;}
	.st1{stroke:#000000;stroke-width:3;stroke-miterlimit:10;}
	.st2{fill:none;stroke:#050505;stroke-width:5;stroke-miterlimit:10;}
	.st3{fill:#FFFFFF;}
	.st4{fill:#ED0056;stroke:#000000;stroke-width:3;stroke-miterlimit:10;}
	.st5{fill:#ED0056;}
	.st6{fill:#FFFFFF;stroke:#000000;stroke-width:2;stroke-miterlimit:10;}
</style>
<g>
	<path class="st0" d="M36.9,7.3H304c15.3,0,27.6,12.8,27.6,28.5V321c0,15.7-12.3,28.5-27.6,28.5H36.9c-15.3,0-27.6-12.8-27.6-28.5
		V35.8C9.3,20.1,21.6,7.3,36.9,7.3z"/>
</g>
<g>
	<path class="st1" d="M-532-978.3c-8-8-17.6-14.1-28-17.9c-22.4-8.5-45.9-13.1-69.6-13.7h-20.5c-23.7,0.5-47.2,5.1-69.5,13.7
		c-10.4,3.8-20,9.9-28.1,17.9c-5.9,5.5-8.9,13.6-8.2,21.9c0.9,7,4.3,13.4,9.4,18c6.8,6.4,14.6,11.5,23.1,15
		c13.4,5.9,24.9,15.8,33,28.5c1.2,1.9,2.2,3.8,3.1,5.8c3.9,7.3,3.7,16.4-0.7,23.5c-2,3.9-4.3,7.6-7,11c-8.1,9.1-17.8,16.6-28.5,22
		c-5.6,3-11.5,5.6-17.4,7.8c-15.9,6.4-27.1,7.8-26.9,8.8c8.4,0.5,16.8,0.5,25.2,0c138.1-0.8,191.2-0.5,205.8,0
		c1.3,0,14.8,0.6,15.3-0.8c0.4-1.4-2-1.1-8.2-3.2c-3.7-1.2-7.4-2.6-11.1-3.8c-9.6-3.2-18.8-8-27-14.2c-6-4.8-11.3-10.4-16-16.7
		c-2.9-3.6-5.4-7.5-7.4-11.7c-4.4-7.1-4.7-16.1-0.7-23.5c1-2,2-4,3.2-5.8c8.1-12.7,19.6-22.6,32.9-28.5c8.5-3.5,16.4-8.5,23.2-15
		c4.8-4.5,8-10.6,9.1-17.2C-523-964.6-526.1-972.8-532-978.3z M-984.3-833.8c11.4,0.1,22.7,2.6,33.3,7.3l-33.3,2.4V-833.8z
		 M-987.5-824.1l-33.3-2.4c10.6-4.7,21.9-7.1,33.3-7.3V-824.1z M-967.6-835.7c-5.5-1.1-11.1-1.8-16.7-1.9v-33
		c15.4,0,30.6,3,45.1,8.8c-2.6,4.6-4.9,9.5-6.9,14.5c-2.2,5.5-3.9,11.1-5.3,16.9c-5.3-2.3-10.9-4.1-16.5-5.3H-967.6z M-1003.9-835.8
		c-5.6,1.2-11.1,3-16.5,5.3c-1.3-5.8-3.1-11.4-5.3-16.9c-2-5-4.3-9.8-6.9-14.5c14.5-5.8,29.7-8.8,45.1-8.8v33
		c-5.6,0.1-11.2,0.7-16.7,1.9H-1003.9z M-1024.1-907.6c12.1-2,24.4-3.1,36.6-3.2v36.2c-4-0.1-8,0-11.9,0.5
		c-11.1,0.9-22.2,3.1-32.9,6.4l-3.6,1.3l-1.5,0.6c-2.7-4.1-5.6-8.2-8.7-12.1c-5.2-6.8-10.9-13.1-17-18.9
		C-1050.4-901.7-1037.4-905.2-1024.1-907.6L-1024.1-907.6z M-947.7-907.6c13.3,2.4,26.3,5.9,39,10.6c-6.1,5.8-11.8,12.1-17,18.9
		c-3.1,3.9-6,8-8.7,12.1l-1.5-0.6l-3.6-1.3c-10.7-3.3-21.8-5.4-32.9-6.4c-4-0.4-8-0.6-11.9-0.5V-911
		C-972-910.7-959.8-909.7-947.7-907.6L-947.7-907.6z M-1065.4-838.1c-8.5-3.3-16.3-8.4-22.9-14.9c-6.9-5.9-7.8-16.5-2.1-23.6l0,0
		l0.8-0.9c5.6-7.4,13.3-12.6,22.1-14.9c5.4,4.5,10.4,9.5,15,14.9c3.8,4.5,7.3,9.2,10.5,14.2c-3.6,1.4-10.6,4.8-16.5,12.2
		C-1062.5-846.2-1064.5-841.3-1065.4-838.1z M-1061.1-836.7c0.7-2.8,2.2-7.3,5.5-11.8c4.8-6.6,10.9-9.6,13.8-10.9
		c1.4,2.4,2.8,4.9,4.2,7.6c4.3,8.6,7.1,16.7,9,24c-0.6,0.4-1.2,0.7-1.9,0.7c-5.9-0.3-13.9-1.5-22.5-5.3
		C-1056.1-833.7-1058.8-835.2-1061.1-836.7z M-922.1-833.8c-8.6,3.8-16.6,5-22.5,5.3c-0.7-0.1-1.3-0.3-1.9-0.7
		c1.9-7.2,4.7-15.4,9-24c1.3-2.7,2.7-5.2,4.2-7.6c2.9,1.3,9,4.3,13.8,10.9c3.3,4.5,4.8,9,5.5,11.8
		C-916.4-836.6-919.1-835.2-922.1-833.8z M-737.5-819.9v-0.6l15.6-7.8c-1.5,2.7-1.5,6,0,8.6L-737.5-819.9z M-558.6-829.1l15.6,7.8
		v0.6h-15.5c1.5-2.7,1.5-6,0-8.7L-558.6-829.1z M-571.2-834.6c1.5,0.7,2.9,1.6,4.2,2.6c2.4,1.7,4,4.3,4.7,7.2
		c0.3,1.7,0.1,3.5-0.6,5.1h-77c-11,0-37.8,0.5-74,0h-2.9c-0.7-1.6-0.9-3.4-0.7-5.1c0.7-2.9,2.4-5.5,4.7-7.2c1.3-1,2.7-1.8,4.2-2.6
		l13.8-10.6c2.7,4.3,6.5,7.7,11,9.6c10.4,4.7,21.6,7.4,32.9,7.8c3.7,0,7.4,0.5,11,0.6c3.7,0.1,7.4-0.1,11-0.6
		c11.3-0.5,22.5-3.1,32.9-7.8c4.5-1.9,8.4-5.2,11.1-9.6L-571.2-834.6z M-592.6-850.5c1,1.2,1.4,2.3,0,3.3c-1.9,2-4,3.8-6.3,5.2
		c-7.4,3.8-15.5,6.1-23.7,6.9c-12.1,1.8-24.4,1.8-36.5,0c-8.2-0.8-16.3-3.1-23.7-6.9c-2.3-1.5-4.5-3.2-6.4-5.2c-1-1-0.7-2.2,0-3.3
		c1.9-2.1,3.6-4.3,5.3-6.7c1.6-2.3,3-4.7,4.2-7.2c4.9,3.1,10.2,5.3,15.8,6.3c14.9,3.3,30.3,3.3,45.2,0c5.6-1,11-3.1,15.8-6.2
		c1.4,2.4,2.6,4.9,4.1,7.2c1.6,2.4,3.4,4.6,5.3,6.7L-592.6-850.5z M-602.8-875.7c0,0.9-0.4,1.8-1.1,2.3c-3.9,3.2-8.5,5.4-13.3,6.3
		c-7.4,2-15,3-22.7,3.1c-7.7,0-15.3-1.1-22.7-3.1c-4.8-0.9-9.4-3.1-13.3-6.3c-0.7-0.6-1.1-1.4-1.1-2.3c0.4-3.4-0.1-6.9-1.4-10
		c-0.1-0.6-0.3-1.2-0.5-1.7c12.7,4.2,25.9,6.5,39.1,6.7c13.2-0.2,26.4-2.5,39-6.7c0.1,0.6-0.1,1.2-0.5,1.7
		C-602.6-882.5-603.1-879.1-602.8-875.7L-602.8-875.7z M-595.4-901.5c-1.6,2.3-3.8,4.1-6.4,5.2c-7.9,3.3-16.2,5.4-24.7,6.2
		c-4.4,0.6-9,0.9-13.4,0.9c-4.5,0.2-9-0.1-13.5-0.9c-8.5-0.8-16.8-2.8-24.7-6.2c-2.6-1.1-4.8-2.9-6.4-5.2
		c-3.5-4.7-7.4-9.1-11.1-13.6c18.4,3.7,37,5.6,55.7,5.7c18.7-0.1,37.3-2.1,55.7-5.7C-587.8-910.6-591.5-906.2-595.4-901.5
		L-595.4-901.5z M-882.6-853.8c-6.7,6.9-14.7,12.2-23.5,15.7c-0.9,0.2-1.8,0.5-2.7,1c0.5-2.6,0.5-5.2,0-7.8
		c-1.5-4.8-4.4-8.9-8.3-11.9c-3.9-3.4-8.4-6-13.2-7.8c3.3-5.5,7-10.7,11-15.7c4.7-5.6,9.9-10.8,15.3-15.6c9,2.5,16.9,8,22.6,15.7
		c2.9,3.5,4.6,8,4.7,12.7c-0.3,5-2.4,9.8-5.9,13.2L-882.6-853.8z M-311.1-658.5c11.4,0.1,22.7,2.6,33.3,7.3l-33.3,2.4V-658.5z
		 M-314.3-648.8l-33.3-2.4c10.6-4.7,21.9-7.1,33.3-7.3V-648.8z M-294.4-660.4c-5.5-1.1-11.1-1.8-16.7-1.9v-33
		c15.4,0,30.6,3,45.1,8.8c-2.6,4.6-4.9,9.5-6.9,14.5c-2.2,5.5-3.9,11.1-5.3,16.9c-5.3-2.3-10.9-4.1-16.5-5.3H-294.4z M-330.7-660.5
		c-5.6,1.2-11.1,3-16.5,5.3c-1.3-5.8-3.1-11.4-5.3-16.9c-2-5-4.3-9.8-6.9-14.5c14.5-5.8,29.7-8.8,45.1-8.8v33
		c-5.6,0.1-11.2,0.7-16.7,1.9H-330.7z M-350.9-732.3c12.1-2,24.4-3.1,36.6-3.2v36.2c-4-0.1-8,0-11.9,0.5
		c-11.1,0.9-22.2,3.1-32.9,6.4l-3.6,1.3l-1.5,0.6c-2.7-4.1-5.6-8.2-8.7-12.1c-5.2-6.8-10.9-13.1-17-18.9
		C-377.2-726.4-364.2-729.9-350.9-732.3L-350.9-732.3z M-274.5-732.3c13.3,2.4,26.3,5.9,39,10.6c-6.1,5.8-11.8,12.1-17,18.9
		c-3.1,3.9-6,8-8.7,12.1l-1.5-0.6l-3.6-1.3c-10.7-3.3-21.8-5.4-32.9-6.4c-4-0.4-8-0.6-11.9-0.5v-36.2
		C-298.8-735.4-286.6-734.4-274.5-732.3L-274.5-732.3z M-392.2-662.8c-8.5-3.3-16.3-8.4-22.9-14.9c-6.9-5.9-7.8-16.5-2.1-23.6l0,0
		l0.8-0.9c5.6-7.4,13.3-12.6,22.1-14.9c5.4,4.5,10.4,9.5,15,14.9c3.8,4.5,7.3,9.2,10.5,14.2c-3.6,1.4-10.6,4.8-16.5,12.2
		C-389.3-670.9-391.2-666.1-392.2-662.8z M-385.2-661.4c0.7-2.8,2.2-7.3,5.5-11.8c4.8-6.6,10.9-9.6,13.8-10.9
		c1.4,2.4,2.8,4.9,4.2,7.6c4.3,8.6,7.1,16.7,9,24c-0.6,0.4-1.2,0.7-1.9,0.7c-5.9-0.3-13.9-1.5-22.5-5.3
		C-380.1-658.4-382.8-659.9-385.2-661.4z M-248.9-658.5c-8.6,3.8-16.6,5-22.5,5.3c-0.7-0.1-1.3-0.3-1.9-0.7c1.9-7.2,4.7-15.4,9-24
		c1.3-2.7,2.7-5.2,4.2-7.6c2.9,1.3,9,4.3,13.8,10.9c3.3,4.5,4.8,9,5.5,11.8C-243.2-661.4-245.9-659.9-248.9-658.5z M-209.4-678.5
		c-6.7,6.9-14.7,12.2-23.5,15.7c-0.9,0.2-1.8,0.5-2.7,1c0.5-2.6,0.5-5.2,0-7.8c-1.5-4.8-4.4-8.9-8.3-11.9c-3.9-3.4-8.4-6-13.2-7.8
		c3.3-5.5,7-10.7,11-15.7c4.7-5.6,9.9-10.8,15.3-15.6c9,2.5,16.9,8,22.6,15.7c2.9,3.5,4.6,8,4.7,12.7c-0.3,5-2.4,9.8-5.9,13.2
		L-209.4-678.5z M-875.6-639.4c11.4,0.1,22.7,2.6,33.3,7.3l-33.3,2.4V-639.4z M-878.8-629.7l-33.3-2.4c10.6-4.7,21.9-7.1,33.3-7.3
		C-878.8-639.4-878.8-629.7-878.8-629.7z M-858.9-641.4c-5.5-1.1-11.1-1.8-16.7-1.9v-33c15.4,0,30.6,3,45.1,8.8
		c-2.6,4.6-4.9,9.5-6.9,14.5c-2.2,5.5-3.9,11.1-5.3,16.9c-5.3-2.3-10.9-4.1-16.5-5.3H-858.9z M-895.2-641.4
		c-5.6,1.2-11.1,3-16.5,5.3c-1.3-5.8-3.1-11.4-5.3-16.9c-2-5-4.3-9.8-6.9-14.5c14.5-5.8,29.7-8.8,45.1-8.8v33
		c-5.6,0.1-11.2,0.7-16.7,1.9H-895.2z M-915.4-713.2c12.1-2,24.4-3.1,36.6-3.2v36.2c-4-0.1-8,0-11.9,0.5
		c-11.1,0.9-22.2,3.1-32.9,6.4l-3.6,1.3l-1.5,0.6c-2.7-4.1-5.6-8.2-8.7-12.1c-5.2-6.8-10.9-13.1-17-18.9
		C-941.7-707.3-928.6-710.8-915.4-713.2L-915.4-713.2z M-839-713.2c13.3,2.4,26.3,5.9,39,10.6c-6.1,5.8-11.8,12.1-17,18.9
		c-3.1,3.9-6,8-8.7,12.1l-1.5-0.6l-3.6-1.3c-10.7-3.3-21.8-5.4-32.9-6.4c-4-0.4-8-0.6-11.9-0.5v-36.2
		C-863.3-716.3-851.1-715.3-839-713.2L-839-713.2z M-956.7-643.7c-8.5-3.3-16.3-8.4-22.9-14.9c-6.9-5.9-7.8-16.5-2.1-23.6l0,0
		l0.8-0.9c5.6-7.4,13.3-12.6,22.1-14.9c5.4,4.5,10.4,9.5,15,14.9c3.8,4.5,7.3,9.2,10.5,14.2c-3.6,1.4-10.6,4.8-16.5,12.2
		C-953.8-651.8-955.7-647-956.7-643.7z M-952.4-642.3c0.7-2.8,2.2-7.3,5.5-11.8c4.8-6.6,10.9-9.6,13.8-10.9c1.4,2.4,2.8,4.9,4.2,7.6
		c4.3,8.6,7.1,16.7,9,24c-0.6,0.4-1.2,0.7-1.9,0.7c-5.9-0.3-13.9-1.5-22.5-5.3C-947.3-639.3-950-640.8-952.4-642.3z M-813.3-639.4
		c-8.6,3.8-16.6,5-22.5,5.3c-0.7-0.1-1.3-0.3-1.9-0.7c1.9-7.2,4.7-15.4,9-24c1.3-2.7,2.7-5.2,4.2-7.6c2.9,1.3,9,4.3,13.8,10.9
		c3.3,4.5,4.8,9,5.5,11.8C-807.6-642.3-810.3-640.8-813.3-639.4z M-773.9-659.4c-6.7,6.9-14.7,12.2-23.5,15.7
		c-0.9,0.2-1.8,0.5-2.7,1c0.5-2.6,0.5-5.2,0-7.8c-1.5-4.8-4.4-8.9-8.3-11.9c-3.9-3.4-8.4-6-13.2-7.8c3.3-5.5,7-10.7,11-15.7
		c4.7-5.6,9.9-10.8,15.3-15.6c9,2.5,16.9,8,22.6,15.7c2.9,3.5,4.6,8,4.7,12.7c-0.3,5-2.4,9.8-5.9,13.2V-659.4z M-480.1-665
		c0,23-54,41.7-120.7,41.7S-721.5-642-721.5-665s54-41.7,120.7-41.7S-480.1-688-480.1-665z M-639.8-918l-33.3-2.4
		c10.6-4.7,21.9-7.1,33.3-7.3V-918z M-656.5-930.2c-5.6,1.2-11.1,3-16.5,5.3c-1.3-5.8-3.1-11.4-5.3-16.9c-2-5-4.3-9.8-6.9-14.5
		c14.5-5.8,29.7-8.8,45.1-8.8v33c-5.6,0.1-11.2,0.7-16.7,1.9H-656.5z M-676.7-1001.5c12.1-2,24.4-3.1,36.6-3.2v36.2
		c-4-0.1-8,0-11.9,0.5c-11.1,0.9-22.2,3.1-32.9,6.4l-3.6,1.3l-1.5,0.6c-2.7-4.1-5.6-8.2-8.7-12.1c-5.2-6.8-10.9-13.1-17-18.9
		C-703-995.6-690-999.1-676.7-1001.5L-676.7-1001.5z M-717.4-931.7c-8.5-3.3-16.3-8.4-22.9-14.9c-6.9-5.9-7.8-16.5-2.1-23.6l0,0
		l0.8-0.9c5.6-7.4,13.3-12.6,22.1-14.9c5.4,4.5,10.4,9.5,15,14.9c3.8,4.5,7.3,9.2,10.5,14.2c-3.6,1.4-10.6,4.8-16.5,12.2
		C-714.5-939.8-716.5-934.9-717.4-931.7z M-713.1-930.3c0.7-2.8,2.2-7.3,5.5-11.8c4.8-6.6,10.9-9.6,13.8-10.9
		c1.4,2.4,2.8,4.9,4.2,7.6c4.3,8.6,7.1,16.7,9,24c-0.6,0.4-1.2,0.7-1.9,0.7c-5.9-0.3-13.9-1.5-22.5-5.3
		C-708.1-927.3-710.8-928.8-713.1-930.3z M-639.9-927.7c11.4,0.2,22.7,2.6,33.3,7.3l-33.3,2.4V-927.7z M-623.4-930.2
		c-5.5-1.2-11.1-1.8-16.7-1.9v-33c15.4,0,30.6,3,45.1,8.8c-2.6,4.7-4.9,9.5-6.9,14.5c-2.2,5.5-4,11.1-5.3,16.9
		c-5.4-2.3-10.9-4.1-16.5-5.3H-623.4z M-603.5-1001.5c13.3,2.4,26.3,5.9,39,10.8c-6.1,5.8-11.8,12.1-17,18.9c-3.1,3.9-6,8-8.7,12.1
		l-1.5-0.6l-3.6-1.3c-10.7-3.3-21.8-5.5-32.9-6.4c-3.9-0.5-7.9-0.6-11.9-0.5v-36.2C-627.9-1004.6-615.6-1003.5-603.5-1001.5
		L-603.5-1001.5z M-569.1-947.4c-5.9-7.4-12.9-10.8-16.5-12.2c3.2-5,6.7-9.7,10.5-14.2c4.6-5.4,9.6-10.4,15-14.9
		c8.8,2.3,16.5,7.5,22.1,14.9l0.8,0.9l0,0c5.7,7.1,4.8,17.7-2.1,23.6c-6.6,6.5-14.4,11.6-22.9,14.9
		C-563.1-937.6-565.1-942.5-569.1-947.4z M-577.5-926.3c-8.6,3.8-16.6,5-22.5,5.3c-0.7,0-1.3-0.3-1.9-0.7c1.9-7.3,4.7-15.4,9-24
		c1.4-2.7,2.8-5.2,4.2-7.6c2.9,1.3,9,4.3,13.8,10.9c3.3,4.5,4.8,9,5.5,11.8C-571.7-929.1-574.4-927.6-577.5-926.3z"/>
	<ellipse cx="-641.6" cy="-1105.6" rx="17.8" ry="19.3"/>
	<path class="st0" d="M-771.1-1158.7h260.7c14.9,0,26.9,12.8,26.9,28.5V-845c0,15.7-12,28.5-26.9,28.5h-260.7
		c-14.9,0-26.9-12.8-26.9-28.5v-285.2C-798-1145.9-786-1158.7-771.1-1158.7z"/>
	<g>
		<g>
			<path d="M-1593-916.2c10.4-5.9,27.6-9.5,46-9.5c18.5,0,35.6,3.5,46,9.5c11.1-1.8,21.3-4.3,30.3-7.3c0.9-1.8,1.5-3.7,1.5-5.5
				c0-15.8-35.6-29.1-77.8-29.1c-42.2,0-77.8,13.4-77.8,29.1c0,1.9,0.6,3.7,1.5,5.5C-1614.4-920.5-1604.1-918.1-1593-916.2z"/>
			<path d="M-1587.1-915.2c12.6,1.8,26,2.8,40.1,2.8s27.6-1,40.1-2.8c-10-4.3-24.5-6.9-40.1-6.9
				C-1562.5-922.2-1577.1-919.7-1587.1-915.2z"/>
			<path d="M-1479.3-836c-4.5-3.2-8.5-6.8-12.1-10.8c-4,11.1-27,19.5-55.6,19.5s-51.7-8.3-55.6-19.5c-3.5,3.9-7.6,7.6-11.9,10.8
				c-2.3,1.6-4.8,3.2-7.5,4.8c-1.6,2.1-2.6,4.5-2.6,7.2c0,1.5,0.3,3,1,4.5h153.6c0.6-1.5,0.9-3,0.9-4.5c0-2.5-0.9-4.9-2.6-7.2
				C-1474.5-832.8-1477-834.3-1479.3-836z"/>
			<path d="M-1466.6-828.4c0.5,1.4,0.8,2.9,0.8,4.4s-0.3,3-0.8,4.5h17.9c-3.6-2.3-7.9-4.4-12.6-6.5
				C-1463.2-826.8-1464.9-827.6-1466.6-828.4z"/>
			<path d="M-1632.7-826c-4.8,2-9,4.2-12.6,6.5h17.8c-0.5-1.5-0.8-2.9-0.8-4.5c0-1.5,0.3-2.9,0.8-4.4
				C-1629.2-827.6-1630.9-826.8-1632.7-826z"/>
			<path d="M-1596.6-899.2C-1596.6-899.1-1596.6-899.1-1596.6-899.2c1.2,1.9,2.5,3.8,3.5,5.7c2.9,2,6.7,3.7,11.1,5.2
				c4.3,1.5,8.1,2.3,11.8,3c7.1,1.3,15,2,23.3,2c9.6,0,18.8-1,26.7-2.8c1.3-0.3,2.6-0.6,3.8-0.9c4.3-1.1,7.4-2.3,9.6-3.3
				c0.2-0.1,0.4-0.2,0.6-0.3c2.1-0.9,3.9-1.9,5.5-3c2-3.4,4.6-7.2,8-11.1l0,0l0,0l0,0c2-2.3,4-4.4,5.9-6.2h0.1
				c0.5-0.4,0.9-0.8,1.4-1.3l0,0l0,0l0,0l0,0c-4.8,1.1-11.2,2.4-18.8,3.6c-4.5,0.7-9,1.2-13.7,1.7c-6.5,0.6-15.6,1.2-26.3,1.4
				c-0.9,0-1.9,0-2.9,0c-21.1,0-40.9-2.1-58-5.8c-0.5-0.1-0.9-0.2-1.4-0.3c-0.3-0.1-0.6-0.1-0.9-0.2c-0.5-0.1-0.9-0.2-1.4-0.3l0,0
				l0,0c0.4,0.3,0.8,0.7,1.2,1c2.1,1.8,4.3,4,6.6,6.6h-0.1C-1599.5-902.9-1597.9-901-1596.6-899.2z"/>
			<path d="M-1399.9-1164.9h-299.3c-12.6,0-23,10.3-23,23v299.3c0,12.6,10.3,23,23,23h42.4c5.4-4.7,12.5-9,21.4-12.7
				c6.8-3,12.4-6,16.8-9.3c6.4-4.7,12-10.3,16.3-16.3c5.8-8,7.9-15,7.9-18.6c0-3.7-2.1-10.6-7.9-18.6c-4.2-6-9.9-11.6-16.3-16.3
				c-4.4-3.3-9.9-6.4-16.8-9.4l-0.1-0.1c-20.3-8.7-32.7-20.6-32.7-33.8c0-27.6,53.3-49.1,121.3-49.1s121.3,21.6,121.3,49.2
				c0,13.2-12.4,25.1-32.7,33.8l-0.1,0.1c-6.8,3-12.4,6-16.8,9.3c-6.4,4.7-12,10.3-16.3,16.3c-5.8,8-7.9,15-7.9,18.6
				c0,3.7,2.1,10.6,7.9,18.6c4.2,6,9.9,11.6,16.3,16.3c4.4,3.3,9.9,6.4,16.8,9.4c8.8,3.7,16,8,21.3,12.6h37.2c12.6,0,23-10.3,23-23
				v-299.2C-1376.9-1154.6-1387.3-1164.9-1399.9-1164.9z"/>
			<path d="M-1599.8-849.9c0.4,9.3,21.4,19.2,52.8,19.2c31.4,0,52.5-9.9,52.8-19.2c-1-1.3-2.1-2.5-3-3.9c-3.5-5.1-6.3-10.2-7.8-15
				c-7,6.6-23.1,11.1-42,11.1c-19.1,0-35-4.5-42-11.1c-1.4,4.7-4.1,9.9-7.8,15C-1597.8-852.5-1598.8-851.3-1599.8-849.9z"/>
			<path d="M-1547-879.8c-17.4,0-33.1-3.1-43.5-8.2c1.8,4.2,2.8,8.2,2.8,11.5c0,1.1-0.2,2.3-0.4,3.7c4.4,6.1,19.8,11.7,41,11.7
				c21.2,0,36.6-5.5,41-11.7c-0.2-1.3-0.4-2.5-0.4-3.7c0-3.4,1-7.3,2.8-11.5C-1513.9-882.9-1529.6-879.8-1547-879.8z"/>
			<path d="M-1547-961.6c45.5,0,81.2,14.2,81.2,32.5c0,1.4-0.3,2.7-0.6,4c20.8-7.7,33.8-18.2,33.8-29.6c0-22.9-52.4-42.2-114.4-42.2
				s-114.4,19.4-114.4,42.2c0,11.4,13,22,33.8,29.6c-0.4-1.3-0.6-2.7-0.6-4C-1628.2-947.3-1592.6-961.6-1547-961.6z"/>
		</g>
		<path class="st2" d="M-1106-1086.8c10.4,7.9,26.5,22.4,38.2,45.5c5.7,11.3,9,22,10.9,30.7"/>
		<path class="st2" d="M-929.3-1086.9c-10.4,7.9-26.5,22.4-38.2,45.5c-5.7,11.3-9,22-10.9,30.7"/>
		<line class="st2" x1="-1016.4" y1="-1010.7" x2="-1016.4" y2="-1098.1"/>
	</g>
	<circle class="st3" cx="-1209.1" cy="-1098.2" r="21.1"/>
</g>
<path d="M609,186.8c-8.4-8.5-18.7-13.7-29.7-17.9c-23.7-9.1-48.6-12.7-73.8-13.7c-3.6-0.1-7.2-0.2-10.9-0.3c-3.6,0-7.2,0.1-10.9,0.3
	c-25.2,1-50,4.6-73.8,13.7c-11,4.2-21.3,9.4-29.7,17.9c-5.9,6-9.7,13.1-8.8,21.9c0.8,7.4,4.8,13.1,10,18
	c7.1,6.8,15.6,11.3,24.5,15.1c14.4,6.2,26.3,15.4,35,28.5c1.2,1.9,2.3,3.8,3.3,5.8c4.3,8,3.6,15.7-0.8,23.4
	c-8.7,15.5-21.6,26-37.7,33c-7.8,3.4-15.2,7.3-21.9,12.7c-1.4,1.1-1.7,2.4-1.1,3.7c0.2,0.5,1.7,0.8,2.7,0.8c36.4,0,72.7,0,109.1,0
	c36.4,0,72.7,0,109.1,0c0.9,0,2.4-0.2,2.7-0.8c0.5-1.3,0.2-2.6-1.1-3.7c-6.7-5.3-14.1-9.3-21.9-12.7c-16.1-7-29-17.5-37.7-33
	c-4.3-7.8-5.1-15.5-0.8-23.4c1.1-2,2.1-3.9,3.3-5.8c8.7-13.1,20.6-22.3,35-28.5c8.9-3.8,17.4-8.4,24.5-15.1c5.2-5,9.2-10.6,10-18
	C618.7,199.9,615,192.9,609,186.8z M535.7,165.8c16.2,2.6,30.2,6.6,41.7,10.6c-5.8,5.1-12.1,11.4-18.3,19c-3.4,4.2-6.4,8.2-9.1,12.1
	c-0.3-0.1-0.9-0.3-1.5-0.5c0,0-2-0.7-3.8-1.3c-14.8-4.9-35.2-6.4-35.2-6.4c-3.2-0.2-7.6-0.5-12.8-0.5v-36.3
	C507.9,162.6,521.1,163.5,535.7,165.8z M475.1,241.9c6.7-1.3,12.7-1.7,17.8-1.7v9.8c-12.2-0.8-24.5-1.7-36.7-2.5
	C461.2,245.4,467.6,243.3,475.1,241.9z M455.3,243.1c-1.3-5-3.2-10.8-6-17c-2.5-5.6-5.1-10.5-7.7-14.5c7-2.5,15.5-4.9,25.3-6.6
	c9.7-1.7,18.5-2.2,25.8-2.2c0,11,0,22.1,0,33.1c-5.3,0-11.8,0.5-19,1.8C466.5,239.2,460.3,241.2,455.3,243.1z M496.5,240.2
	c5,0,11.1,0.4,17.8,1.7c7.5,1.4,13.9,3.5,18.9,5.6c-12.2,0.8-24.5,1.7-36.7,2.5V240.2z M515.6,237.8c-7.2-1.4-13.7-1.8-19-1.8
	c0-11,0-21.9,0-33.1c7.3,0,16.1,0.5,25.8,2.2c9.8,1.7,18.3,4.1,25.3,6.6c-2.5,4.1-5.2,8.9-7.7,14.5c-2.7,6.2-4.6,12-6,17
	C529.1,241.2,522.9,239.2,515.6,237.8z M453.7,165.8c14.6-2.4,27.8-3.2,39.1-3.3v36.3c-5.3,0-9.7,0.3-12.8,0.5
	c0,0-20.5,1.5-35.2,6.4c-1.8,0.6-3.8,1.3-3.8,1.3c-0.7,0.2-1.2,0.4-1.5,0.5c-2.6-3.9-5.6-8-9.1-12.1c-6.2-7.6-12.5-13.9-18.3-19
	C423.5,172.4,437.5,168.5,453.7,165.8z M413.2,236.2c-1.1-0.4-2-0.7-2.9-1.1c-9.1-3.8-17.9-8.1-24.9-15.3c-4.1-4.2-6.2-8.7-6.3-13.3
	c-0.1-5.5,2.8-9.6,5-12.6c7.4-10.2,18.4-14.2,24.1-15.7c5,4.1,10.6,9.2,16.2,15.5c4.7,5.3,8.6,10.5,11.7,15.2
	c-6.6,2.4-11.2,5.7-14,8c-3.8,3.2-7.3,6.3-8.7,11.5C412.8,230.7,412.7,233.3,413.2,236.2z M419.9,238.5c-0.5-0.2-1.6-0.6-2.3-1.6
	c-0.6-0.9-0.7-2.1-0.7-2.9c0-0.3,0.1-1.1,0.1-2c0.2-3.5,2.1-6,2.8-6.9c4.9-6.8,17.2-11.9,18.4-12.4c1.2,1.9,2.8,4.4,4.4,7.5
	c2,3.7,1.6,3.7,3.9,8.7c0,0,3.4,7.2,5,13.8c0.1,0.4,0.3,1.4-0.2,2.1c-0.5,0.2-1.3,0.6-2.3,0.6c-4.7,0-9.5-1.6-15.5-3.1
	C433.7,242.4,425,240.3,419.9,238.5z M397.4,345.9c-0.1-0.2-0.1-0.4-0.2-0.6c5.5-2.7,11-5.4,16.5-8.1c-0.4,0.7-1.3,2.6-1.1,5.1
	c0.2,1.7,0.8,2.9,1.2,3.6C408.4,346,402.9,346,397.4,345.9z M575.7,337.3c5.5,2.7,11,5.4,16.5,8.1c-0.1,0.2-0.1,0.4-0.2,0.6
	c-5.5,0-11,0-16.5,0.1c0.4-0.7,1-1.9,1.2-3.6C577,339.9,576.1,338,575.7,337.3z M563.4,330.3c0.5,0.4,2.3,1.1,4.2,2.8
	c1.4,1.2,4.2,3.7,4.8,7.6c0.1,1,0.3,2.9-0.6,5.4c-34.2-0.3-59.7-0.1-77.1,0c-11,0.1-37.8,0.5-74.1,0c-1,0-2,0-3,0
	c-0.9-2.4-0.8-4.4-0.6-5.4c0.6-3.9,3.4-6.4,4.8-7.6c1.9-1.7,3.7-2.4,4.2-2.8c4.6-3.7,9.2-7.4,13.7-11.2c2.3,4.5,6.4,7.7,11.1,10.1
	c10.3,5.4,21.5,7.5,32.9,8.6c3.7,0.3,7.4,0.6,11.1,0.6c3.7-0.1,7.4-0.3,11.1-0.6c11.4-1.1,22.6-3.2,32.9-8.6
	c4.7-2.4,8.8-5.5,11.1-10.1C554.3,322.8,558.8,326.6,563.4,330.3z M545.5,313.7c0.8,1.2,1,1.5,1,2c0.1,6.1-28.7,12-51.8,13.3
	c0,0-34.1,1.9-51.1-12.3c-0.6-0.5-0.6-1-0.6-1c-0.1-0.6,0.3-1.3,1-2c2-1.9,3.9-3.9,5.6-6c1.7-2.1,3-4.3,4.5-6.5
	c5,2.9,10.7,4.5,16.8,5.7c7.9,1.5,15.9,2.2,23.9,2.3c8-0.1,16-0.8,23.9-2.3c6.1-1.1,11.8-2.8,16.8-5.7
	C538.7,304.6,542.1,308.8,545.5,313.7z M534.2,291.4c0.1,0.7-0.5,1.7-1.2,2.3c-4,3.3-9,5-14.2,6.2c-7.9,1.9-16,2.8-24.1,2.9
	c-8.1-0.1-16.2-1-24.1-2.9c-5.2-1.2-10.2-2.9-14.2-6.2c-0.7-0.5-1.3-1.6-1.2-2.3c0.6-3.4-0.3-6.6-1.5-9.8c-0.2-0.6-0.4-1.2-0.6-1.7
	c13.9,4.2,27.7,6.4,41.5,6.6c13.8-0.2,27.6-2.4,41.5-6.6c-0.2,0.5-0.4,1.1-0.6,1.7C534.5,284.8,533.5,287.9,534.2,291.4z M542,266.2
	c-1.8,2.6-4,4.4-6.8,5.8c-8.3,4-17.2,5.7-26.3,6.8c-4.7,0.6-9.5,0.9-14.2,1c-4.7-0.1-9.5-0.4-14.2-1c-9-1.2-17.9-2.9-26.3-6.8
	c-2.8-1.3-4.9-3.1-6.8-5.8c-3.7-5.3-7.9-10.2-11.8-15.2c19.7,4,39.4,6.1,59,6.3c19.7-0.2,39.4-2.3,59-6.3
	C549.8,256.1,545.6,261,542,266.2z M572.5,234c0,0.8-0.1,2-0.7,2.9c-0.7,1-1.7,1.4-2.3,1.6c-5.1,1.7-13.7,3.9-13.7,3.9
	c-6,1.5-10.8,3.1-15.5,3.1c-1,0-1.8-0.5-2.3-0.6c-0.5-0.8-0.3-1.7-0.2-2.1c1.6-6.6,5-13.8,5-13.8c2.4-5,2-4.9,3.9-8.7
	c1.6-3.1,3.2-5.6,4.4-7.5c1.2,0.5,13.6,5.6,18.4,12.4c0.6,0.9,2.6,3.4,2.8,6.9C572.4,233,572.5,233.7,572.5,234z M603.9,219.8
	c-7,7.2-15.8,11.5-24.9,15.3c-0.9,0.4-1.8,0.7-2.9,1.1c0.5-2.9,0.4-5.4-0.2-7.8c-1.4-5.2-4.9-8.3-8.7-11.5c-2.7-2.3-7.3-5.6-14-8
	c3.1-4.7,6.9-9.9,11.7-15.2c5.6-6.4,11.2-11.5,16.2-15.5c5.7,1.6,16.6,5.6,24.1,15.7c2.2,3,5.1,7.1,5,12.6
	C610.2,211.1,608,215.5,603.9,219.8z"/>
<ellipse cx="495.1" cy="49.4" rx="18.9" ry="19.4"/>
<path class="st1" d="M977.8-65.5c-8-8-17.6-14.1-28-17.9c-22.4-8.5-45.9-13.1-69.6-13.7h-20.5c-23.7,0.5-47.2,5.1-69.5,13.7
	c-10.4,3.8-20,9.9-28.1,17.9c-5.9,5.5-8.9,13.6-8.2,21.9c0.9,7,4.3,13.4,9.4,18c6.8,6.4,14.6,11.5,23.1,15
	c13.4,5.9,24.9,15.8,33,28.5c1.2,1.9,2.2,3.8,3.1,5.8c3.9,7.3,3.7,16.4-0.7,23.5c-2,3.9-4.3,7.6-7,11c-8.1,9.1-17.8,16.6-28.5,22
	c-5.6,3-11.5,5.6-17.4,7.8c-15.9,6.4-27.1,7.8-26.9,8.8c8.4,0.5,16.8,0.5,25.2,0c138.1-0.8,191.2-0.5,205.8,0
	c1.3,0,14.8,0.6,15.3-0.8c0.4-1.4-2-1.1-8.2-3.2c-3.7-1.2-7.4-2.6-11.1-3.8c-9.6-3.2-18.8-8-27-14.2c-6-4.8-11.3-10.4-16-16.7
	c-2.9-3.6-5.4-7.5-7.4-11.7c-4.4-7.1-4.7-16.1-0.7-23.5c1-2,2-4,3.2-5.8c8.1-12.7,19.6-22.6,32.9-28.5c8.5-3.5,16.4-8.5,23.2-15
	c4.8-4.5,8-10.6,9.1-17.2C986.8-51.8,983.7-60,977.8-65.5z"/>
<path class="st4" d="M772.3,92.9v-0.6l15.6-7.8c-1.5,2.7-1.5,6,0,8.6L772.3,92.9z"/>
<path class="st4" d="M951.2,83.7l15.6,7.8v0.6h-15.5c1.5-2.7,1.5-6,0-8.7L951.2,83.7z"/>
<path class="st4" d="M938.6,78.2c1.5,0.7,2.9,1.6,4.2,2.6c2.4,1.7,4,4.3,4.7,7.2c0.3,1.7,0.1,3.5-0.6,5.1h-77c-11,0-37.8,0.5-74,0
	H793c-0.7-1.6-0.9-3.4-0.7-5.1c0.7-2.9,2.4-5.5,4.7-7.2c1.3-1,2.7-1.8,4.2-2.6L815,67.6c2.7,4.3,6.5,7.7,11,9.6
	c10.4,4.7,21.6,7.4,32.9,7.8c3.7,0,7.4,0.5,11,0.6c3.7,0.1,7.4-0.1,11-0.6c11.3-0.5,22.5-3.1,32.9-7.8c4.5-1.9,8.4-5.2,11.1-9.6
	L938.6,78.2z"/>
<path class="st4" d="M917.2,62.3c1,1.2,1.4,2.3,0,3.3c-1.9,2-4,3.8-6.3,5.2c-7.4,3.8-15.5,6.1-23.7,6.9c-12.1,1.8-24.4,1.8-36.5,0
	c-8.2-0.8-16.3-3.1-23.7-6.9c-2.3-1.5-4.5-3.2-6.4-5.2c-1-1-0.7-2.2,0-3.3c1.9-2.1,3.6-4.3,5.3-6.7c1.6-2.3,3-4.7,4.2-7.2
	c4.9,3.1,10.2,5.3,15.8,6.3c14.9,3.3,30.3,3.3,45.2,0c5.6-1,11-3.1,15.8-6.2c1.4,2.4,2.6,4.9,4.1,7.2c1.6,2.4,3.4,4.6,5.3,6.7
	L917.2,62.3z"/>
<path class="st4" d="M907,37.1c0,0.9-0.4,1.8-1.1,2.3c-3.9,3.2-8.5,5.4-13.3,6.3c-7.4,2-15,3-22.7,3.1c-7.7,0-15.3-1.1-22.7-3.1
	c-4.8-0.9-9.4-3.1-13.3-6.3c-0.7-0.6-1.1-1.4-1.1-2.3c0.4-3.4-0.1-6.9-1.4-10c-0.1-0.6-0.3-1.2-0.5-1.7c12.7,4.2,25.9,6.5,39.1,6.7
	c13.2-0.2,26.4-2.5,39-6.7c0.1,0.6-0.1,1.2-0.5,1.7C907.2,30.3,906.7,33.7,907,37.1L907,37.1z"/>
<path class="st4" d="M914.4,13.7c-1.6,2.3-3.8,4.1-6.4,5.2c-7.9,3.3-16.2,5.4-24.7,6.2c-4.4,0.6-9,0.9-13.4,0.9
	c-4.5,0.2-9-0.1-13.5-0.9c-8.5-0.8-16.8-2.8-24.7-6.2c-2.6-1.1-4.8-2.9-6.4-5.2c-3.5-4.7-7.4-9.1-11.1-13.6
	c18.4,3.7,37,5.6,55.7,5.7c18.7-0.1,37.3-2.1,55.7-5.7C922,4.6,918.3,9,914.4,13.7L914.4,13.7z"/>
<g>
	<path class="st5" d="M868.7,0v-9.2C854.4-9.1,843.2-6,837-2.1C847-0.8,857.7-0.1,868.7,0z"/>
	<path class="st5" d="M928.2-39.2c-1.3,2.4-2.6,4.8-3.8,7.3c-4.2,8.9-7.5,18.3-9.8,27.9c6.4-1.2,12.5-2.6,18.2-4.2
		c5.1-4.2,8-8.9,8-13.9C940.8-28.4,936.1-34.3,928.2-39.2z"/>
	<path class="st5" d="M815-43.1c12.7-7,31.8-11.5,53.7-11.8v-36.5c-31.8,0.1-60.4,5.9-80.3,15C799-66.7,807.9-55.6,815-43.1z"/>
	<path class="st5" d="M815.3-31.8c-1-2.1-2-4.1-3.1-6.1c-6.7,4.6-10.6,10-10.6,15.8c0,5.5,3.4,10.6,9.4,15c4.5,1.2,9.2,2.2,14.1,3.1
		C822.9-13.6,819.6-22.9,815.3-31.8z"/>
	<path class="st5" d="M873.7,0c10.1-0.1,19.9-0.8,29.2-2c-5.8-3.7-16.1-6.6-29.2-7.1V0z"/>
	<path class="st5" d="M830.5-3c0.8,0.1,1.6,0.2,2.3,0.4c6.4-5.6,19.9-9.4,35.9-9.6v-39.7c-21.2,0.3-39.9,4.7-52.2,11.4
		c1.2,2.1,2.3,4.3,3.4,6.5C824.5-24.1,828.1-13.7,830.5-3z"/>
	<path class="st5" d="M956.3-74.2c-10.6,9.4-19.5,20.3-26.6,32.4c8.9,5.5,14.1,12.2,14.1,19.7c0,4.3-1.7,8.3-4.8,12
		c25.1-8.4,41.2-21.2,41.2-35.7C980.2-56.5,971.2-66.3,956.3-74.2z"/>
	<path class="st5" d="M798.6-22.1c0-6.9,4.5-13.2,12.2-18.5c-7.2-12.6-16.3-23.9-27.2-33.6c-14.9,7.8-23.8,17.7-23.8,28.4
		c0,15.1,17.6,28.4,44.7,36.8C800.7-12.9,798.6-17.4,798.6-22.1z"/>
	<path class="st5" d="M951.4-76.5c-19.4-8.8-47-14.5-77.7-14.9v36.5c20.7,0.3,39,4.3,51.6,10.7C932.4-56.2,941.1-67,951.4-76.5z"/>
	<path class="st5" d="M873.7-12.2c14.9,0.5,27.3,4.2,33.4,9.5c0.7-0.1,1.5-0.2,2.2-0.3c2.4-10.7,5.9-21.1,10.7-31
		c1.2-2.6,2.6-5.1,3.9-7.6c-12.3-6.1-30.1-10-50.2-10.4V-12.2z"/>
</g>
<g>
	<path class="st1" d="M284.2,184.4c-8-8-17.6-14.1-28-17.9c-22.4-8.5-45.9-13.1-69.6-13.7h-20.5c-23.7,0.5-47.2,5.1-69.5,13.7
		c-10.4,3.8-20,9.9-28.1,17.9c-5.9,5.5-8.9,13.6-8.2,21.9c0.9,7,4.3,13.4,9.4,18c6.8,6.4,14.6,11.5,23.1,15
		c13.4,5.9,24.9,15.8,33,28.5c1.2,1.9,2.2,3.8,3.1,5.8c3.9,7.3,3.7,16.4-0.7,23.5c-2,3.9-4.3,7.6-7,11c-8.1,9.1-17.8,16.6-28.5,22
		c-5.6,3-11.5,5.6-17.4,7.8c-15.9,6.4-27.1,7.8-26.9,8.8c8.4,0.5,16.8,0.5,25.2,0c138.1-0.8,191.2-0.5,205.8,0
		c1.3,0,14.8,0.6,15.3-0.8c0.4-1.4-2-1.1-8.2-3.2c-3.7-1.2-7.4-2.6-11.1-3.8c-9.6-3.2-18.8-8-27-14.2c-6-4.8-11.3-10.4-16-16.7
		c-2.9-3.6-5.4-7.5-7.4-11.7c-4.4-7.1-4.7-16.1-0.7-23.5c1-2,2-4,3.2-5.8c8.1-12.7,19.6-22.6,32.9-28.5c8.5-3.5,16.4-8.5,23.2-15
		c4.8-4.5,8-10.6,9.1-17.2C293.2,198.1,290.1,189.9,284.2,184.4z"/>
	<g>
		<path class="st6" d="M150.9,244c-1.8,0.7-3.4,1.6-4.7,2.4c9.2,1.1,18.9,1.7,28.9,1.8v-8.4C165.9,240,157.3,241.4,150.9,244z"/>
		<path class="st6" d="M121.4,203.8c12.7-7.3,31.8-11.9,53.6-12.2v-32.2c-30.9,0.1-58.7,5.7-78.1,14.5
			C106.6,182.7,114.8,192.7,121.4,203.8z"/>
		<path class="st6" d="M232.5,211c-1.1,2.1-2.2,4.2-3.2,6.3c-4.1,8.6-7.3,17.7-9.6,27.1c2.4-0.5,4.8-0.9,7.2-1.5
			c10.3-5,16.1-11.4,16.1-17.6C243,220.5,239.2,215.4,232.5,211z"/>
		<path class="st6" d="M123.2,217.3c-0.8-1.7-1.7-3.4-2.5-5c-5.6,4.1-8.6,8.7-8.6,13.1c0,6.6,6.6,13.3,18.1,18.5
			c0.9,0.2,1.8,0.3,2.7,0.5C130.5,235.1,127.3,226,123.2,217.3z"/>
		<path class="st6" d="M179.9,239.9v8.3c9.1-0.1,18-0.7,26.4-1.7c-1.3-0.9-2.9-1.7-4.8-2.4C195.7,241.7,188.1,240.2,179.9,239.9z"/>
		<path class="st6" d="M260.2,176.2c-9.5,8.5-17.7,18.2-24.3,29c8.8,5.6,13.9,12.6,13.9,20.2c0,4.4-1.8,8.7-4.9,12.5
			c23.6-8.2,38.6-20.4,38.6-34.1C283.4,193.4,274.7,183.8,260.2,176.2z"/>
		<path class="st6" d="M137.8,244.8c6.1-7.5,21.9-11.5,37.2-11.7v-34.7c-21.7,0.3-39.3,5-50.3,11.3c1,1.8,1.9,3.7,2.8,5.5
			C132.1,224.6,135.5,234.6,137.8,244.8z"/>
		<path class="st6" d="M105.2,225.4c0-7.1,4.4-13.6,12.1-19c-6.8-11.3-15.1-21.4-25-30.2c-14.5,7.6-23.2,17.2-23.2,27.6
			c0,14.4,16.5,27.2,42,35.3C107.3,234.9,105.2,230.3,105.2,225.4z"/>
		<path class="st6" d="M255.5,173.9c-18.8-8.6-45.6-14.1-75.6-14.5v32.2c20.8,0.3,39.1,4.5,51.7,11.2
			C238.2,192.1,246.2,182.4,255.5,173.9z"/>
		<path class="st6" d="M179.9,233.1c14.5,0.6,28.9,4.6,34.7,11.6c2.3-10.2,5.7-20.1,10.2-29.5c1.1-2.2,2.2-4.5,3.4-6.6
			c-11.1-5.8-27.9-9.9-48.3-10.2V233.1z"/>
	</g>
	<path class="st6" d="M240.5,327.3c-4.3-2.9-8.3-6.3-11.7-10c-3.9,10.3-26.1,18.1-53.8,18.1s-50-7.7-53.8-18.1
		c-3.4,3.6-7.3,7-11.5,10c-2.2,1.5-4.6,2.9-7.3,4.4c-1.5,1.9-2.5,4.2-2.5,6.7c0,1.4,0.3,2.8,0.9,4.2h148.6c0.5-1.4,0.9-2.8,0.9-4.2
		c0-2.3-0.9-4.5-2.5-6.7C245.1,330.3,242.7,328.9,240.5,327.3z"/>
	<path class="st6" d="M255.5,333.7c0.4,1.4,0.7,2.9,0.7,4.4c0,1.5-0.3,3-0.7,4.5h17.3c-3.5-2.3-7.6-4.4-12.2-6.5
		C258.7,335.3,257.1,334.5,255.5,333.7z"/>
	<path class="st6" d="M88.2,336.1c-4.6,2-8.7,4.2-12.2,6.5h17.2c-0.5-1.5-0.7-2.9-0.7-4.5c0-1.5,0.3-2.9,0.7-4.4
		C91.6,334.5,90,335.3,88.2,336.1z"/>
	<path class="st6" d="M133.3,264.6C133.3,264.7,133.3,264.7,133.3,264.6c1.1,1.7,2.1,3.4,3,5.1c2.5,1.8,5.8,3.4,9.6,4.7
		c3.7,1.4,7,2.1,10.2,2.7c6.2,1.2,13,1.8,20.2,1.8c8.3,0,16.3-0.9,23.2-2.5c1.1-0.2,2.2-0.5,3.3-0.8c3.7-1,6.4-2.1,8.4-3
		c0.2-0.1,0.3-0.2,0.5-0.2c1.8-0.8,3.4-1.7,4.8-2.7c1.7-3,4-6.5,6.9-10l0,0l0,0l0,0c1.8-2.1,3.5-4,5.1-5.6c0,0,0.1,0,0.1,0
		c0.4-0.3,0.8-0.7,1.2-1.2l0,0l0,0l0,0l0,0c-4.2,1-9.7,2.2-16.4,3.2c-3.9,0.6-7.8,1.1-11.9,1.5c-5.7,0.5-13.6,1.1-22.8,1.2
		c-0.8,0-1.6,0-2.5,0c-18.4,0-35.5-1.9-50.4-5.2c-0.4-0.1-0.8-0.2-1.2-0.3c-0.3-0.1-0.5-0.1-0.8-0.2c-0.4-0.1-0.8-0.2-1.2-0.3l0,0h0
		c0.3,0.3,0.7,0.6,1.1,0.9c1.8,1.6,3.8,3.6,5.7,5.9c0,0-0.1,0-0.1,0C130.7,261.3,132.1,263,133.3,264.6z"/>
	<path class="st6" d="M125,312.5c0.4,8.5,20.7,17.5,51.1,17.5s50.8-9,51.1-17.5c-1-1.2-2-2.3-2.9-3.5c-3.4-4.6-6.1-9.3-7.5-13.7
		c-6.8,6.1-22.3,10.1-40.7,10.1c-18.5,0-33.9-4.1-40.7-10.1c-1.4,4.3-4,9-7.5,13.7C127,310.2,126,311.3,125,312.5z"/>
	<path class="st6" d="M176.2,284.2c-16.9,0-32-2.8-42.1-7.4c1.7,3.9,2.7,7.4,2.7,10.5c0,1-0.2,2.1-0.4,3.3
		c4.3,5.5,19.1,10.7,39.7,10.7s35.4-5,39.7-10.7c-0.2-1.2-0.4-2.3-0.4-3.3c0-3.1,1-6.7,2.7-10.5C208.2,281.4,193,284.2,176.2,284.2z
		"/>
</g>
<ellipse cx="176.1" cy="58" rx="17.5" ry="17.5"/>
<path class="st1" d="M630-754.4c-8-8-17.6-14.1-28-17.9c-22.4-8.5-45.9-13.1-69.6-13.7h-20.5c-23.7,0.5-47.2,5.1-69.5,13.7
	c-10.4,3.8-20,9.9-28.1,17.9c-5.9,5.5-8.9,13.6-8.2,21.9c0.9,7,4.3,13.4,9.4,18c6.8,6.4,14.6,11.5,23.1,15
	c13.4,5.9,24.9,15.8,33,28.5c1.2,1.9,2.2,3.8,3.1,5.8c3.9,7.3,3.7,16.4-0.7,23.5c-2,3.9-4.3,7.6-7,11c-8.1,9.1-17.8,16.6-28.5,22
	c-5.6,3-11.5,5.6-17.4,7.8c-15.9,6.4-27.1,7.8-26.9,8.8c8.4,0.5,16.8,0.5,25.2,0c138.1-0.8,191.2-0.5,205.8,0
	c1.3,0,14.8,0.6,15.3-0.8c0.4-1.4-2-1.1-8.2-3.2c-3.7-1.2-7.4-2.6-11.1-3.8c-9.6-3.2-18.8-8-27-14.2c-6-4.8-11.3-10.4-16-16.7
	c-2.9-3.6-5.4-7.5-7.4-11.7c-4.4-7.1-4.7-16.1-0.7-23.5c1-2,2-4,3.2-5.8c8.1-12.7,19.6-22.6,32.9-28.5c8.5-3.5,16.4-8.5,23.2-15
	c4.8-4.5,8-10.6,9.1-17.2C639-740.7,635.9-748.9,630-754.4z M177.7-609.9c11.4,0.1,22.7,2.6,33.3,7.3l-33.3,2.4V-609.9z
	 M174.5-600.2l-33.3-2.4c10.6-4.7,21.9-7.1,33.3-7.3V-600.2z M194.4-611.8c-5.5-1.1-11.1-1.8-16.7-1.9v-33c15.4,0,30.6,3,45.1,8.8
	c-2.6,4.6-4.9,9.5-6.9,14.5c-2.2,5.5-3.9,11.1-5.3,16.9c-5.3-2.3-10.9-4.1-16.5-5.3H194.4z M158.1-611.9c-5.6,1.2-11.1,3-16.5,5.3
	c-1.3-5.8-3.1-11.4-5.3-16.9c-2-5-4.3-9.8-6.9-14.5c14.5-5.8,29.7-8.8,45.1-8.8v33c-5.6,0.1-11.2,0.7-16.7,1.9H158.1z M137.9-683.7
	c12.1-2,24.4-3.1,36.6-3.2v36.2c-4-0.1-8,0-11.9,0.5c-11.1,0.9-22.2,3.1-32.9,6.4l-3.6,1.3l-1.5,0.6c-2.7-4.1-5.6-8.2-8.7-12.1
	c-5.2-6.8-10.9-13.1-17-18.9C111.6-677.8,124.6-681.3,137.9-683.7L137.9-683.7z M214.3-683.7c13.3,2.4,26.3,5.9,39,10.6
	c-6.1,5.8-11.8,12.1-17,18.9c-3.1,3.9-6,8-8.7,12.1l-1.5-0.6l-3.6-1.3c-10.7-3.3-21.8-5.4-32.9-6.4c-4-0.4-8-0.6-11.9-0.5v-36.2
	C190-686.8,202.2-685.8,214.3-683.7L214.3-683.7z M96.6-614.2c-8.5-3.3-16.3-8.4-22.9-14.9c-6.9-5.9-7.8-16.5-2.1-23.6l0,0l0.8-0.9
	c5.6-7.4,13.3-12.6,22.1-14.9c5.4,4.5,10.4,9.5,15,14.9c3.8,4.5,7.3,9.2,10.5,14.2c-3.6,1.4-10.6,4.8-16.5,12.2
	C99.5-622.3,97.5-617.4,96.6-614.2z M100.9-612.8c0.7-2.8,2.2-7.3,5.5-11.8c4.8-6.6,10.9-9.6,13.8-10.9c1.4,2.4,2.8,4.9,4.2,7.6
	c4.3,8.6,7.1,16.7,9,24c-0.6,0.4-1.2,0.7-1.9,0.7c-5.9-0.3-13.9-1.5-22.5-5.3C105.9-609.8,103.2-611.3,100.9-612.8z M239.9-609.9
	c-8.6,3.8-16.6,5-22.5,5.3c-0.7-0.1-1.3-0.3-1.9-0.7c1.9-7.2,4.7-15.4,9-24c1.3-2.7,2.7-5.2,4.2-7.6c2.9,1.3,9,4.3,13.8,10.9
	c3.3,4.5,4.8,9,5.5,11.8C245.6-612.7,242.9-611.3,239.9-609.9z M424.5-596v-0.6l15.6-7.8c-1.5,2.7-1.5,6,0,8.6L424.5-596z
	 M603.4-605.2l15.6,7.8v0.6h-15.5c1.5-2.7,1.5-6,0-8.7L603.4-605.2z M590.8-610.7c1.5,0.7,2.9,1.6,4.2,2.6c2.4,1.7,4,4.3,4.7,7.2
	c0.3,1.7,0.1,3.5-0.6,5.1h-77c-11,0-37.8,0.5-74,0h-2.9c-0.7-1.6-0.9-3.4-0.7-5.1c0.7-2.9,2.4-5.5,4.7-7.2c1.3-1,2.7-1.8,4.2-2.6
	l13.8-10.6c2.7,4.3,6.5,7.7,11,9.6c10.4,4.7,21.6,7.4,32.9,7.8c3.7,0,7.4,0.5,11,0.6c3.7,0.1,7.4-0.1,11-0.6
	c11.3-0.5,22.5-3.1,32.9-7.8c4.5-1.9,8.4-5.2,11.1-9.6L590.8-610.7z M569.4-626.6c1,1.2,1.4,2.3,0,3.3c-1.9,2-4,3.8-6.3,5.2
	c-7.4,3.8-15.5,6.1-23.7,6.9c-12.1,1.8-24.4,1.8-36.5,0c-8.2-0.8-16.3-3.1-23.7-6.9c-2.3-1.5-4.5-3.2-6.4-5.2c-1-1-0.7-2.2,0-3.3
	c1.9-2.1,3.6-4.3,5.3-6.7c1.6-2.3,3-4.7,4.2-7.2c4.9,3.1,10.2,5.3,15.8,6.3c14.9,3.3,30.3,3.3,45.2,0c5.6-1,11-3.1,15.8-6.2
	c1.4,2.4,2.6,4.9,4.1,7.2c1.6,2.4,3.4,4.6,5.3,6.7L569.4-626.6z M559.2-651.8c0,0.9-0.4,1.8-1.1,2.3c-3.9,3.2-8.5,5.4-13.3,6.3
	c-7.4,2-15,3-22.7,3.1c-7.7,0-15.3-1.1-22.7-3.1c-4.8-0.9-9.4-3.1-13.3-6.3c-0.7-0.6-1.1-1.4-1.1-2.3c0.4-3.4-0.1-6.9-1.4-10
	c-0.1-0.6-0.3-1.2-0.5-1.7c12.7,4.2,25.9,6.5,39.1,6.7c13.2-0.2,26.4-2.5,39-6.7c0.1,0.6-0.1,1.2-0.5,1.7
	C559.4-658.6,558.9-655.2,559.2-651.8L559.2-651.8z M566.6-677.6c-1.6,2.3-3.8,4.1-6.4,5.2c-7.9,3.3-16.2,5.4-24.7,6.2
	c-4.4,0.6-9,0.9-13.4,0.9c-4.5,0.2-9-0.1-13.5-0.9c-8.5-0.8-16.8-2.8-24.7-6.2c-2.6-1.1-4.8-2.9-6.4-5.2c-3.5-4.7-7.4-9.1-11.1-13.6
	c18.4,3.7,37,5.6,55.7,5.7c18.7-0.1,37.3-2.1,55.7-5.7C574.2-686.7,570.5-682.3,566.6-677.6L566.6-677.6z M279.4-629.9
	c-6.7,6.9-14.7,12.2-23.5,15.7c-0.9,0.2-1.8,0.5-2.7,1c0.5-2.6,0.5-5.2,0-7.8c-1.5-4.8-4.4-8.9-8.3-11.9c-3.9-3.4-8.4-6-13.2-7.8
	c3.3-5.5,7-10.7,11-15.7c4.7-5.6,9.9-10.8,15.3-15.6c9,2.5,16.9,8,22.6,15.7c2.9,3.5,4.6,8,4.7,12.7c-0.3,5-2.4,9.8-5.9,13.2
	L279.4-629.9z M850.9-434.6c11.4,0.1,22.7,2.6,33.3,7.3l-33.3,2.4V-434.6z M847.7-424.9l-33.3-2.4c10.6-4.7,21.9-7.1,33.3-7.3
	V-424.9z M867.6-436.5c-5.5-1.1-11.1-1.8-16.7-1.9v-33c15.4,0,30.6,3,45.1,8.8c-2.6,4.6-4.9,9.5-6.9,14.5
	c-2.2,5.5-3.9,11.1-5.3,16.9c-5.3-2.3-10.9-4.1-16.5-5.3H867.6z M831.3-436.6c-5.6,1.2-11.1,3-16.5,5.3c-1.3-5.8-3.1-11.4-5.3-16.9
	c-2-5-4.3-9.8-6.9-14.5c14.5-5.8,29.7-8.8,45.1-8.8v33c-5.6,0.1-11.2,0.7-16.7,1.9H831.3z M811.1-508.4c12.1-2,24.4-3.1,36.6-3.2
	v36.2c-4-0.1-8,0-11.9,0.5c-11.1,0.9-22.2,3.1-32.9,6.4l-3.6,1.3l-1.5,0.6c-2.7-4.1-5.6-8.2-8.7-12.1c-5.2-6.8-10.9-13.1-17-18.9
	C784.8-502.5,797.8-506,811.1-508.4L811.1-508.4z M887.5-508.4c13.3,2.4,26.3,5.9,39,10.6c-6.1,5.8-11.8,12.1-17,18.9
	c-3.1,3.9-6,8-8.7,12.1l-1.5-0.6l-3.6-1.3c-10.7-3.3-21.8-5.4-32.9-6.4c-4-0.4-8-0.6-11.9-0.5v-36.2
	C863.2-511.5,875.4-510.5,887.5-508.4L887.5-508.4z M769.8-438.9c-8.5-3.3-16.3-8.4-22.9-14.9c-6.9-5.9-7.8-16.5-2.1-23.6l0,0
	l0.8-0.9c5.6-7.4,13.3-12.6,22.1-14.9c5.4,4.5,10.4,9.5,15,14.9c3.8,4.5,7.3,9.2,10.5,14.2c-3.6,1.4-10.6,4.8-16.5,12.2
	C772.7-447,770.8-442.2,769.8-438.9z M776.8-437.5c0.7-2.8,2.2-7.3,5.5-11.8c4.8-6.6,10.9-9.6,13.8-10.9c1.4,2.4,2.8,4.9,4.2,7.6
	c4.3,8.6,7.1,16.7,9,24c-0.6,0.4-1.2,0.7-1.9,0.7c-5.9-0.3-13.9-1.5-22.5-5.3C781.9-434.5,779.2-436,776.8-437.5z M913.1-434.6
	c-8.6,3.8-16.6,5-22.5,5.3c-0.7-0.1-1.3-0.3-1.9-0.7c1.9-7.2,4.7-15.4,9-24c1.3-2.7,2.7-5.2,4.2-7.6c2.9,1.3,9,4.3,13.8,10.9
	c3.3,4.5,4.8,9,5.5,11.8C918.8-437.5,916.1-436,913.1-434.6z M952.6-454.6c-6.7,6.9-14.7,12.2-23.5,15.7c-0.9,0.2-1.8,0.5-2.7,1
	c0.5-2.6,0.5-5.2,0-7.8c-1.5-4.8-4.4-8.9-8.3-11.9c-3.9-3.4-8.4-6-13.2-7.8c3.3-5.5,7-10.7,11-15.7c4.7-5.6,9.9-10.8,15.3-15.6
	c9,2.5,16.9,8,22.6,15.7c2.9,3.5,4.6,8,4.7,12.7c-0.3,5-2.4,9.8-5.9,13.2L952.6-454.6z M286.4-415.5c11.4,0.1,22.7,2.6,33.3,7.3
	l-33.3,2.4V-415.5z M283.2-405.8l-33.3-2.4c10.6-4.7,21.9-7.1,33.3-7.3C283.2-415.5,283.2-405.8,283.2-405.8z M303.1-417.5
	c-5.5-1.1-11.1-1.8-16.7-1.9v-33c15.4,0,30.6,3,45.1,8.8c-2.6,4.6-4.9,9.5-6.9,14.5c-2.2,5.5-3.9,11.1-5.3,16.9
	c-5.3-2.3-10.9-4.1-16.5-5.3H303.1z M266.8-417.5c-5.6,1.2-11.1,3-16.5,5.3c-1.3-5.8-3.1-11.4-5.3-16.9c-2-5-4.3-9.8-6.9-14.5
	c14.5-5.8,29.7-8.8,45.1-8.8v33c-5.6,0.1-11.2,0.7-16.7,1.9H266.8z M246.6-489.3c12.1-2,24.4-3.1,36.6-3.2v36.2c-4-0.1-8,0-11.9,0.5
	c-11.1,0.9-22.2,3.1-32.9,6.4l-3.6,1.3l-1.5,0.6c-2.7-4.1-5.6-8.2-8.7-12.1c-5.2-6.8-10.9-13.1-17-18.9
	C220.3-483.4,233.4-486.9,246.6-489.3L246.6-489.3z M323-489.3c13.3,2.4,26.3,5.9,39,10.6c-6.1,5.8-11.8,12.1-17,18.9
	c-3.1,3.9-6,8-8.7,12.1l-1.5-0.6l-3.6-1.3c-10.7-3.3-21.8-5.4-32.9-6.4c-4-0.4-8-0.6-11.9-0.5v-36.2
	C298.7-492.4,310.9-491.4,323-489.3L323-489.3z M205.3-419.8c-8.5-3.3-16.3-8.4-22.9-14.9c-6.9-5.9-7.8-16.5-2.1-23.6l0,0l0.8-0.9
	c5.6-7.4,13.3-12.6,22.1-14.9c5.4,4.5,10.4,9.5,15,14.9c3.8,4.5,7.3,9.2,10.5,14.2c-3.6,1.4-10.6,4.8-16.5,12.2
	C208.2-427.9,206.3-423.1,205.3-419.8z M209.6-418.4c0.7-2.8,2.2-7.3,5.5-11.8c4.8-6.6,10.9-9.6,13.8-10.9c1.4,2.4,2.8,4.9,4.2,7.6
	c4.3,8.6,7.1,16.7,9,24c-0.6,0.4-1.2,0.7-1.9,0.7c-5.9-0.3-13.9-1.5-22.5-5.3C214.7-415.4,212-416.9,209.6-418.4z M348.7-415.5
	c-8.6,3.8-16.6,5-22.5,5.3c-0.7-0.1-1.3-0.3-1.9-0.7c1.9-7.2,4.7-15.4,9-24c1.3-2.7,2.7-5.2,4.2-7.6c2.9,1.3,9,4.3,13.8,10.9
	c3.3,4.5,4.8,9,5.5,11.8C354.4-418.4,351.7-416.9,348.7-415.5z M388.1-435.5c-6.7,6.9-14.7,12.2-23.5,15.7c-0.9,0.2-1.8,0.5-2.7,1
	c0.5-2.6,0.5-5.2,0-7.8c-1.5-4.8-4.4-8.9-8.3-11.9c-3.9-3.4-8.4-6-13.2-7.8c3.3-5.5,7-10.7,11-15.7c4.7-5.6,9.9-10.8,15.3-15.6
	c9,2.5,16.9,8,22.6,15.7c2.9,3.5,4.6,8,4.7,12.7c-0.3,5-2.4,9.8-5.9,13.2V-435.5z M681.9-441.1c0,23-54,41.7-120.7,41.7
	s-120.7-18.7-120.7-41.7s54-41.7,120.7-41.7S681.9-464.1,681.9-441.1z M522.3-693.7l-33.3-2.4c10.6-4.7,21.9-7.1,33.3-7.3V-693.7z
	 M485.4-698.6c-1.4-6-3.3-11.8-5.7-17.5c-2.2-5.2-4.6-10.1-7.4-15c15.6-6,32-9.1,48.6-9.1v34.1c-5.1,0.1-11.5,0.6-18.7,2.1
	C495.6-702.4,489.9-700.4,485.4-698.6z M484.3-776.3c12.1-2,24.4-3.1,36.6-3.2v36.2c-4-0.1-8,0-11.9,0.5
	c-11.1,0.9-22.2,3.1-32.9,6.4l-3.6,1.3l-1.5,0.6c-2.7-4.1-5.6-8.2-8.7-12.1c-5.2-6.8-10.9-13.1-17-18.9
	C458-770.4,471-773.9,484.3-776.3L484.3-776.3z M444.6-708.3c-8.5-3.3-16.3-8.4-22.9-14.9c-6.9-5.9-7.8-16.5-2.1-23.6l0,0l0.8-0.9
	c5.6-7.4,13.3-12.6,22.1-14.9c5.4,4.5,10.4,9.5,15,14.9c3.8,4.5,7.3,9.2,10.5,14.2c-3.6,1.4-10.6,4.8-16.5,12.2
	C447.5-716.4,445.5-711.5,444.6-708.3z M448.9-706c0.7-2.8,2.2-7.3,5.5-11.8c4.8-6.6,10.9-9.6,13.8-10.9c1.4,2.4,2.8,4.9,4.2,7.6
	c4.3,8.6,7.1,16.7,9,24c-0.6,0.4-1.2,0.7-1.9,0.7c-5.9-0.3-13.9-1.5-22.5-5.3C453.9-703,451.2-704.5,448.9-706z M522.1-703.4
	c11.4,0.2,22.7,2.6,33.3,7.3l-33.3,2.4V-703.4z M522.4-706v-34.1c16.4,0,32.5,3.1,47.9,9.1c-2.8,4.9-5.2,9.8-7.3,15
	c-2.3,5.7-4.3,11.5-5.6,17.5c-4.3-1.8-9.5-3.6-15.6-5C534.3-705.3,527.7-705.9,522.4-706z M559-776.3c13.3,2.4,26.3,5.9,39,10.8
	c-6.1,5.8-11.8,12.1-17,18.9c-3.1,3.9-6,8-8.7,12.1l-1.5-0.6l-3.6-1.3c-10.7-3.3-21.8-5.5-32.9-6.4c-3.9-0.5-7.9-0.6-11.9-0.5v-36.2
	C534.6-779.4,546.9-778.3,559-776.3L559-776.3z M591.6-721.6c-6.5-7.6-14.1-11.1-18.1-12.5c3.5-5.1,7.3-9.9,11.5-14.5
	c5-5.5,10.5-10.7,16.5-15.3c9.7,2.4,18.1,7.7,24.2,15.3l0.9,0.9l0,0c6.3,7.3,5.3,18.1-2.3,24.2c-7.2,6.7-15.8,11.9-25.1,15.3
	C598.2-711.5,596-716.5,591.6-721.6z M587.6-702.5c-10.5,4.1-20.3,5.4-27.4,5.8c-0.9,0-1.6-0.3-2.3-0.8c2.3-7.9,5.7-16.7,11-26.1
	c1.7-2.9,3.4-5.7,5.1-8.3c3.5,1.4,11,4.7,16.8,11.8c4,4.9,5.9,9.8,6.7,12.8C594.7-705.5,591.4-703.9,587.6-702.5z"/>
<g>
	<g>
		<path d="M-772.4-47.3c10.4-5.9,27.6-9.5,46-9.5c18.5,0,35.6,3.5,46,9.5c11.1-1.8,21.3-4.3,30.3-7.3c0.9-1.8,1.5-3.7,1.5-5.5
			c0-15.8-35.6-29.1-77.8-29.1s-77.8,13.4-77.8,29.1c0,1.9,0.6,3.7,1.5,5.5C-793.8-51.6-783.5-49.2-772.4-47.3z"/>
		<path d="M-766.5-46.3c12.6,1.8,26,2.8,40.1,2.8s27.6-1,40.1-2.8c-10-4.3-24.5-6.9-40.1-6.9C-741.9-53.3-756.5-50.8-766.5-46.3z"/>
		<path d="M-658.7,32.9c-4.5-3.2-8.5-6.8-12.1-10.8c-4,11.1-27,19.5-55.6,19.5s-51.7-8.3-55.6-19.5c-3.5,3.9-7.6,7.6-11.9,10.8
			c-2.3,1.6-4.8,3.2-7.5,4.8c-1.6,2.1-2.6,4.5-2.6,7.2c0,1.5,0.3,3,1,4.5h153.6c0.6-1.5,0.9-3,0.9-4.5c0-2.5-0.9-4.9-2.6-7.2
			C-653.9,36.1-656.4,34.6-658.7,32.9z"/>
		<path d="M-646,40.5c0.5,1.4,0.8,2.9,0.8,4.4s-0.3,3-0.8,4.5h17.9c-3.6-2.3-7.9-4.4-12.6-6.5C-642.6,42.1-644.3,41.3-646,40.5z"/>
		<path d="M-812.1,42.9c-4.8,2-9,4.2-12.6,6.5h17.8c-0.5-1.5-0.8-2.9-0.8-4.5c0-1.5,0.3-2.9,0.8-4.4
			C-808.6,41.3-810.3,42.1-812.1,42.9z"/>
		<path d="M-776-30.3C-776-30.2-776-30.2-776-30.3c1.2,1.9,2.5,3.8,3.5,5.7c2.9,2,6.7,3.7,11.1,5.2c4.3,1.5,8.1,2.3,11.8,3
			c7.1,1.3,15,2,23.3,2c9.6,0,18.8-1,26.7-2.8c1.3-0.3,2.6-0.6,3.8-0.9c4.3-1.1,7.4-2.3,9.6-3.3c0.2-0.1,0.4-0.2,0.6-0.3
			c2.1-0.9,3.9-1.9,5.5-3c2-3.4,4.6-7.2,8-11.1l0,0l0,0l0,0c2-2.3,4-4.4,5.9-6.2h0.1c0.5-0.4,0.9-0.8,1.4-1.3l0,0l0,0l0,0l0,0
			c-4.8,1.1-11.2,2.4-18.8,3.6c-4.5,0.7-9,1.2-13.7,1.7c-6.5,0.6-15.6,1.2-26.3,1.4c-0.9,0-1.9,0-2.9,0c-21.1,0-40.9-2.1-58-5.8
			c-0.5-0.1-0.9-0.2-1.4-0.3c-0.3-0.1-0.6-0.1-0.9-0.2c-0.5-0.1-0.9-0.2-1.4-0.3l0,0l0,0c0.4,0.3,0.8,0.7,1.2,1
			c2.1,1.8,4.3,4,6.6,6.6h-0.1C-778.9-34-777.3-32.1-776-30.3z"/>
		<path d="M-579.3-296h-299.3c-12.6,0-23,10.3-23,23V26.3c0,12.6,10.3,23,23,23h42.4c5.4-4.7,12.5-9,21.4-12.7
			c6.8-3,12.4-6,16.8-9.3c6.4-4.7,12-10.3,16.3-16.3c5.8-8,7.9-15,7.9-18.6c0-3.7-2.1-10.6-7.9-18.6c-4.2-6-9.9-11.6-16.3-16.3
			c-4.4-3.3-9.9-6.4-16.8-9.4l-0.1-0.1c-20.3-8.7-32.7-20.6-32.7-33.8c0-27.6,53.3-49.1,121.3-49.1S-605-113.3-605-85.7
			c0,13.2-12.4,25.1-32.7,33.8l-0.1,0.1c-6.8,3-12.4,6-16.8,9.3c-6.4,4.7-12,10.3-16.3,16.3c-5.8,8-7.9,15-7.9,18.6
			c0,3.7,2.1,10.6,7.9,18.6c4.2,6,9.9,11.6,16.3,16.3c4.4,3.3,9.9,6.4,16.8,9.4c8.8,3.7,16,8,21.3,12.6h37.2c12.6,0,23-10.3,23-23
			v-299.2C-556.3-285.7-566.7-296-579.3-296z"/>
		<path d="M-779.2,19c0.4,9.3,21.4,19.2,52.8,19.2c31.4,0,52.5-9.9,52.8-19.2c-1-1.3-2.1-2.5-3-3.9c-3.5-5.1-6.3-10.2-7.8-15
			c-7,6.6-23.1,11.1-42,11.1c-19.1,0-35-4.5-42-11.1c-1.4,4.7-4.1,9.9-7.8,15C-777.2,16.4-778.2,17.6-779.2,19z"/>
		<path d="M-726.4-10.9c-17.4,0-33.1-3.1-43.5-8.2c1.8,4.2,2.8,8.2,2.8,11.5c0,1.1-0.2,2.3-0.4,3.7c4.4,6.1,19.8,11.7,41,11.7
			s36.6-5.5,41-11.7c-0.2-1.3-0.4-2.5-0.4-3.7c0-3.4,1-7.3,2.8-11.5C-693.3-14-709-10.9-726.4-10.9z"/>
		<path d="M-726.4-92.7c45.5,0,81.2,14.2,81.2,32.5c0,1.4-0.3,2.7-0.6,4C-625-63.9-612-74.4-612-85.8c0-22.9-52.4-42.2-114.4-42.2
			s-114.4,19.4-114.4,42.2c0,11.4,13,22,33.8,29.6c-0.4-1.3-0.6-2.7-0.6-4C-807.6-78.4-772-92.7-726.4-92.7z"/>
	</g>
	<path class="st2" d="M-285.4-217.9c10.4,7.9,26.5,22.4,38.2,45.5c5.7,11.3,9,22,10.9,30.7"/>
	<path class="st2" d="M-108.7-218c-10.4,7.9-26.5,22.4-38.2,45.5c-5.7,11.3-9,22-10.9,30.7"/>
	<line class="st2" x1="-195.8" y1="-141.8" x2="-195.8" y2="-229.2"/>
</g>
<circle class="st3" cx="-388.5" cy="-229.3" r="21.1"/>
</svg>
