<svg id="Layer_1" data-name="Layer 1" xmlns="http://www.w3.org/2000/svg" width="44.23" height="45.44" viewBox="0 0 44.23 45.44">
  <defs>
    <style>
      .cls-1, .cls-2 {
        stroke: #000;
        stroke-miterlimit: 10;
      }

      .cls-1 {
        stroke-width: 0.4px;
      }

      .cls-2 {
        fill: none;
        stroke-width: 1.7px;
      }
    </style>
  </defs>
  <path class="cls-1" d="M36.72,24.2a10.55,10.55,0,0,0-3.78-2.29,29.85,29.85,0,0,0-9.4-1.75H20.77a29.18,29.18,0,0,0-9.39,1.75A10.67,10.67,0,0,0,7.59,24.2,3.33,3.33,0,0,0,6.48,27a3.69,3.69,0,0,0,1.27,2.3,10.16,10.16,0,0,0,3.12,1.92,10,10,0,0,1,4.46,3.64,6.08,6.08,0,0,1,.42.74,2.89,2.89,0,0,1-.09,3A8.32,8.32,0,0,1,14.71,40a12.86,12.86,0,0,1-3.85,2.81,18.76,18.76,0,0,1-2.36,1c-2.15.82-3.66,1-3.64,1.12a32.13,32.13,0,0,0,3.4,0c18.66-.1,25.83-.07,27.8,0,.18,0,2,.08,2.06-.1s-.27-.14-1.11-.41c-.5-.15-1-.33-1.5-.48a13.24,13.24,0,0,1-3.65-1.81A12.38,12.38,0,0,1,29.7,40a8,8,0,0,1-1-1.5,2.89,2.89,0,0,1-.1-3c.14-.25.27-.51.43-.74a10,10,0,0,1,4.45-3.64,10,10,0,0,0,3.13-1.92A3.77,3.77,0,0,0,37.84,27,3.37,3.37,0,0,0,36.72,24.2Zm-9.34-2.68a32.32,32.32,0,0,1,5.31,1.36,20.39,20.39,0,0,0-2.34,2.4c-.41.5-.79,1-1.15,1.55l-.2-.07-.49-.17A24.51,24.51,0,0,0,24,25.78c-.41,0-1,0-1.64-.06V21.11A33.76,33.76,0,0,1,27.38,21.52Zm-7.72,9.69A14.24,14.24,0,0,1,21.92,31v1.24L17.25,32A12.51,12.51,0,0,1,19.66,31.21Zm-2.52.16a15.39,15.39,0,0,0-.76-2.16,15,15,0,0,0-1-1.85,19.56,19.56,0,0,1,6.52-1.12v4.21a13.23,13.23,0,0,0-4.78.92ZM22.39,31a13,13,0,0,1,4.68.93l-4.68.31Zm2.43-.3a14.91,14.91,0,0,0-2.41-.24V26.24a19.5,19.5,0,0,1,6.51,1.12,15,15,0,0,0-1,1.85,13.84,13.84,0,0,0-.76,2.16,14.05,14.05,0,0,0-2.38-.68ZM17,21.52a33.5,33.5,0,0,1,5-.41v4.62a12.51,12.51,0,0,0-1.63.06,22.87,22.87,0,0,0-4.49.81l-.49.17-.2.07c-.37-.53-.77-1.05-1.19-1.55a21.21,21.21,0,0,0-2.33-2.41A32.55,32.55,0,0,1,17,21.52Zm-5.18,9a.86.86,0,0,1-.36-.13,9.17,9.17,0,0,1-3.17-2A2.25,2.25,0,0,1,8,25.22l.11-.12a5.65,5.65,0,0,1,3.06-2,17.78,17.78,0,0,1,2.07,2A17.94,17.94,0,0,1,14.69,27a6,6,0,0,0-1.78,1,2.94,2.94,0,0,0-1.11,1.47,2.27,2.27,0,0,0,0,1Zm.86.31a.51.51,0,0,1-.28-.2.69.69,0,0,1-.1-.37,1.13,1.13,0,0,1,0-.26,1.61,1.61,0,0,1,.35-.88A6.28,6.28,0,0,1,15,27.5a7.9,7.9,0,0,1,.56,1c.17.37.2.47.5,1.1a10.31,10.31,0,0,1,.64,1.76.45.45,0,0,1,0,.28.74.74,0,0,1-.29.08,7.64,7.64,0,0,1-2-.4s-1.13-.28-1.78-.53ZM9,44.46v-.07l2.11-1a1.08,1.08,0,0,0,0,1.1Zm24.16-1.09,2.11,1v.07h-2.1a1.1,1.1,0,0,0,0-1.11Zm-1.73-.7A4.28,4.28,0,0,1,32,43a1.58,1.58,0,0,1,.64.92,1.11,1.11,0,0,1-.08.65H22.16c-1.49,0-5.11.06-10,0h-.4a1.19,1.19,0,0,1-.09-.65,1.58,1.58,0,0,1,.64-.92,4,4,0,0,1,.57-.33l1.86-1.35a3.18,3.18,0,0,0,1.49,1.22,12.59,12.59,0,0,0,4.44,1c.5,0,1,.06,1.49.07a9.24,9.24,0,0,0,1.49-.07,12.59,12.59,0,0,0,4.44-1,3.2,3.2,0,0,0,1.5-1.22l1.84,1.35Zm-2.9-2.07c.14.15.19.29,0,.42a3.92,3.92,0,0,1-.85.67,9.42,9.42,0,0,1-3.2.88,17.7,17.7,0,0,1-4.93,0,9.2,9.2,0,0,1-3.2-.88,4.24,4.24,0,0,1-.86-.67c-.14-.13-.09-.28,0-.42a8.41,8.41,0,0,0,.71-.85,7.72,7.72,0,0,0,.57-.91,6.1,6.1,0,0,0,2.14.8,14.7,14.7,0,0,0,6.1,0,6.17,6.17,0,0,0,2.14-.8c.19.31.35.62.56.91a7.35,7.35,0,0,0,.72.85Zm-1.37-3.22a.38.38,0,0,1-.15.3,4,4,0,0,1-1.8.8,13.16,13.16,0,0,1-3.06.39,12.66,12.66,0,0,1-3.07-.39,4.18,4.18,0,0,1-1.8-.8.42.42,0,0,1-.15-.3,2.47,2.47,0,0,0-.19-1.28.81.81,0,0,0-.07-.22,18.59,18.59,0,0,0,5.29.86,18.5,18.5,0,0,0,5.27-.85.3.3,0,0,1-.07.22A2.52,2.52,0,0,0,27.16,37.38Zm1-3.26a1.92,1.92,0,0,1-.86.66,11.63,11.63,0,0,1-3.34.79c-.6.07-1.21.11-1.81.12a8.57,8.57,0,0,1-1.82-.12A11.64,11.64,0,0,1,17,34.78a1.92,1.92,0,0,1-.86-.66c-.47-.6-1-1.16-1.5-1.74a42.2,42.2,0,0,0,7.52.73,42.2,42.2,0,0,0,7.52-.73c-.5.58-1,1.14-1.51,1.74Zm3.89-3.91a.79.79,0,0,1-.09.38.53.53,0,0,1-.29.2c-.64.21-1.75.49-1.75.49a8.53,8.53,0,0,1-2,.39.74.74,0,0,1-.29-.08.45.45,0,0,1,0-.28,11.28,11.28,0,0,1,.65-1.76c.3-.63.25-.62.49-1.09s.41-.72.57-1A6.63,6.63,0,0,1,31.7,29a1.66,1.66,0,0,1,.35.87c0,.13,0,.26,0,.3Zm4-1.82a9.17,9.17,0,0,1-3.17,2,1.32,1.32,0,0,0-.36.13,2.41,2.41,0,0,0,0-1A3.09,3.09,0,0,0,31.4,28a6,6,0,0,0-1.78-1,17.8,17.8,0,0,1,1.48-2,19.56,19.56,0,0,1,2.07-2,5.71,5.71,0,0,1,3.06,2,2.57,2.57,0,0,1,.64,1.62,2.48,2.48,0,0,1-.8,1.68Z" transform="translate(0.19 -0.44)"/>
  <ellipse cx="22.11" cy="7.58" rx="2.41" ry="2.47"/>
  <rect class="cls-2" x="0.85" y="0.85" width="42.53" height="43.74" rx="3.64"/>
</svg>
