<svg id="Layer_1" data-name="Layer 1" xmlns="http://www.w3.org/2000/svg" viewBox="0 0 335.2 355.2">
  <defs>
    <style>
      .cls-1, .cls-3 {
        fill: #fff;
      }

      .cls-1, .cls-2, .cls-3 {
        stroke: #000;
        stroke-miterlimit: 10;
      }

      .cls-1 {
        stroke-width: 13px;
      }

      .cls-2 {
        stroke-width: 3px;
      }

      .cls-3 {
        stroke-width: 2px;
      }
    </style>
  </defs>
  <path class="cls-1" d="M-60.09-95.89H207c15.27,0,27.56,12.8,27.56,28.5v285.2c0,15.7-12.29,28.5-27.56,28.5H-60.09c-15.27,0-27.56-12.8-27.56-28.5V-67.39C-87.65-83.09-75.36-95.89-60.09-95.89Z" transform="translate(94.15 102.39)"/>
  <g>
    <path class="cls-2" d="M187.21,81.19a77.1,77.1,0,0,0-28-17.9,211.1,211.1,0,0,0-69.6-13.7H69.11A205.08,205.08,0,0,0-.39,63.29a78.33,78.33,0,0,0-28.1,17.9,26.79,26.79,0,0,0-8.2,21.9,29.34,29.34,0,0,0,9.4,18,75.93,75.93,0,0,0,23.1,15,75.21,75.21,0,0,1,33,28.5,46.31,46.31,0,0,1,3.1,5.8,23.75,23.75,0,0,1-.7,23.5,66.13,66.13,0,0,1-7,11,96.49,96.49,0,0,1-28.5,22,142.29,142.29,0,0,1-17.4,7.8c-15.9,6.4-27.1,7.8-26.9,8.8a211.87,211.87,0,0,0,25.2,0c138.1-.8,191.2-.5,205.8,0,1.3,0,14.8.6,15.3-.8s-2-1.1-8.2-3.2c-3.7-1.2-7.4-2.6-11.1-3.8a94.43,94.43,0,0,1-27-14.2,90.58,90.58,0,0,1-16-16.7,59.28,59.28,0,0,1-7.4-11.7,23.5,23.5,0,0,1-.7-23.5,53.87,53.87,0,0,1,3.2-5.8,75.51,75.51,0,0,1,32.9-28.5,74.55,74.55,0,0,0,23.2-15,30.48,30.48,0,0,0,9.1-17.2A27.79,27.79,0,0,0,187.21,81.19Z" transform="translate(94.15 102.39)"/>
    <g>
      <path class="cls-3" d="M53.93,140.86a27.84,27.84,0,0,0-4.74,2.42,252,252,0,0,0,28.91,1.78v-8.4C68.92,136.78,60.37,138.25,53.93,140.86Z" transform="translate(94.15 102.39)"/>
      <path class="cls-3" d="M24.46,100.63C37.14,93.35,56.25,88.7,78.1,88.38V56.19C47.16,56.34,19.37,61.91,0,70.73A135.38,135.38,0,0,1,24.46,100.63Z" transform="translate(94.15 102.39)"/>
      <path class="cls-3" d="M135.49,107.85q-1.69,3.09-3.23,6.29a135.1,135.1,0,0,0-9.56,27.13q3.67-.68,7.2-1.46c10.27-5,16.11-11.39,16.11-17.55C146,117.32,142.26,112.25,135.49,107.85Z" transform="translate(94.15 102.39)"/>
      <path class="cls-3" d="M26.24,114.13c-.81-1.69-1.67-3.35-2.55-5-5.58,4.08-8.64,8.65-8.64,13.12,0,6.55,6.59,13.33,18.09,18.48l2.65.5A135.11,135.11,0,0,0,26.24,114.13Z" transform="translate(94.15 102.39)"/>
      <path class="cls-3" d="M83,136.71V145a246.9,246.9,0,0,0,26.4-1.74,27.71,27.71,0,0,0-4.76-2.43C98.76,138.49,91.18,137,83,136.71Z" transform="translate(94.15 102.39)"/>
      <path class="cls-3" d="M163.21,73a130.84,130.84,0,0,0-24.33,29c8.79,5.62,13.93,12.6,13.93,20.25a19.58,19.58,0,0,1-4.93,12.51c23.58-8.15,38.58-20.42,38.58-34.15C186.46,90.18,177.76,80.57,163.21,73Z" transform="translate(94.15 102.39)"/>
      <path class="cls-3" d="M40.85,141.58C47,134.1,62.76,130,78.1,129.84V95.18c-21.73.32-39.29,5-50.31,11.31,1,1.83,1.93,3.67,2.83,5.55A140.15,140.15,0,0,1,40.85,141.58Z" transform="translate(94.15 102.39)"/>
      <path class="cls-3" d="M8.24,122.26c0-7.11,4.44-13.64,12.11-19A130.24,130.24,0,0,0-4.67,73c-14.5,7.59-23.17,17.17-23.17,27.6,0,14.38,16.46,27.16,42,35.28C10.35,131.74,8.24,127.14,8.24,122.26Z" transform="translate(94.15 102.39)"/>
      <path class="cls-3" d="M158.51,70.69C139.68,62.13,112.87,56.63,83,56.22V88.38c20.77.3,39.07,4.53,51.72,11.2A135.41,135.41,0,0,1,158.51,70.69Z" transform="translate(94.15 102.39)"/>
      <path class="cls-3" d="M83,129.91c14.49.58,28.91,4.58,34.7,11.64A140.41,140.41,0,0,1,127.87,112q1.62-3.37,3.41-6.63C120.19,99.63,103.42,95.48,83,95.18Z" transform="translate(94.15 102.39)"/>
    </g>
    <path class="cls-3" d="M143.52,224.11a70.26,70.26,0,0,1-11.69-10c-3.9,10.32-26.11,18.05-53.82,18.05s-50-7.73-53.83-18.05a76.86,76.86,0,0,1-11.5,10c-2.2,1.47-4.64,2.94-7.27,4.44a10.64,10.64,0,0,0-2.52,6.69,10.08,10.08,0,0,0,.95,4.16H152.43a11.21,11.21,0,0,0,.88-4.16,11.35,11.35,0,0,0-2.52-6.69A76.87,76.87,0,0,1,143.52,224.11Z" transform="translate(94.15 102.39)"/>
    <path class="cls-3" d="M158.51,230.49a14.88,14.88,0,0,1,.73,4.42,14.45,14.45,0,0,1-.73,4.49h17.28a89,89,0,0,0-12.2-6.46C161.76,232.11,160.16,231.36,158.51,230.49Z" transform="translate(94.15 102.39)"/>
    <path class="cls-3" d="M-8.78,232.94A87.84,87.84,0,0,0-21,239.4H-3.75a14,14,0,0,1,0-8.91C-5.35,231.36-7,232.11-8.78,232.94Z" transform="translate(94.15 102.39)"/>
    <path class="cls-3" d="M36.29,161.43h0c1.08,1.69,2.13,3.39,3.05,5.08A39.46,39.46,0,0,0,49,171.19a55.84,55.84,0,0,0,10.23,2.67,107.78,107.78,0,0,0,20.22,1.83,104.57,104.57,0,0,0,23.18-2.47c1.11-.24,2.23-.51,3.31-.78a48.78,48.78,0,0,0,8.36-3l.49-.24a33.09,33.09,0,0,0,4.79-2.71,68.77,68.77,0,0,1,6.91-10h0c1.77-2.1,3.51-4,5.15-5.56,0,0,.06,0,.1,0a13.47,13.47,0,0,0,1.21-1.19h0c-4.16,1-9.74,2.17-16.36,3.22-3.87.61-7.83,1.12-11.93,1.52C99,155,91.06,155.6,81.78,155.7c-.81,0-1.63,0-2.49,0a233.84,233.84,0,0,1-50.38-5.22c-.42-.1-.82-.2-1.21-.27s-.49-.1-.75-.17l-1.25-.31h0c.33.31.69.61,1.08.92a61.34,61.34,0,0,1,5.74,5.89s-.07,0-.1,0A60.38,60.38,0,0,1,36.29,161.43Z" transform="translate(94.15 102.39)"/>
    <path class="cls-3" d="M28.08,209.26c.36,8.46,20.74,17.51,51.12,17.51s50.76-9.05,51.13-17.51c-1-1.2-2-2.3-2.89-3.5a50.93,50.93,0,0,1-7.52-13.66c-6.79,6.06-22.31,10.15-40.68,10.15s-33.89-4.09-40.68-10.15A46.33,46.33,0,0,1,31,205.76C30.05,207,29.06,208.06,28.08,209.26Z" transform="translate(94.15 102.39)"/>
    <path class="cls-3" d="M79.2,181c-16.87,0-32-2.83-42.07-7.45a26.88,26.88,0,0,1,2.71,10.52,23.64,23.64,0,0,1-.37,3.34c4.27,5.55,19.14,10.69,39.7,10.69s35.42-5,39.69-10.69a23.54,23.54,0,0,1-.36-3.34,26.73,26.73,0,0,1,2.7-10.52C111.27,178.21,96,181,79.2,181Z" transform="translate(94.15 102.39)"/>
  </g>
  <circle cx="173.32" cy="57.25" r="17.5"/>
</svg>
