<svg id="Layer_1" data-name="Layer 1" xmlns="http://www.w3.org/2000/svg" viewBox="0 0 44 46">
  <defs>
    <style>
      .cls-1 {
        fill: #0043ff;
        stroke: #083fba;
        stroke-width: 2px;
      }

      .cls-1, .cls-2 {
        stroke-miterlimit: 10;
      }

      .cls-2, .cls-3 {
        fill: #fff;
      }

      .cls-2 {
        stroke: #fff;
        stroke-width: 0.4px;
      }
    </style>
  </defs>
  <path class="cls-1" d="M4.79,1.2H39.61A3.63,3.63,0,0,1,43.2,4.87V41.54a3.62,3.62,0,0,1-3.59,3.66H4.79A3.62,3.62,0,0,1,1.2,41.54V4.87A3.63,3.63,0,0,1,4.79,1.2Z" transform="translate(-0.2 -0.2)"/>
  <path class="cls-2" d="M36.87,44l-1.44-.5a12.12,12.12,0,0,1-3.52-1.85,12,12,0,0,1-2.09-2.17,8,8,0,0,1-1-1.53,3.07,3.07,0,0,1-.09-3.06,7,7,0,0,1,.42-.76,9.84,9.84,0,0,1,4.28-3.71,9.8,9.8,0,0,0,3-2,4,4,0,0,0,1.18-2.24,3.6,3.6,0,0,0-1.11-2.85A10,10,0,0,0,32.93,21a27.55,27.55,0,0,0-9.07-1.79H21.18a26.84,26.84,0,0,0-9,1.79,10.19,10.19,0,0,0-3.67,2.33A3.48,3.48,0,0,0,7.4,26.17a3.8,3.8,0,0,0,1.22,2.35,9.86,9.86,0,0,0,3,1.95,9.74,9.74,0,0,1,4.3,3.72,6.11,6.11,0,0,1,.41.75,3.11,3.11,0,0,1-.1,3.07,8.88,8.88,0,0,1-.91,1.43,12.59,12.59,0,0,1-3.71,2.87,17.64,17.64,0,0,1-2.27,1c-2.07.84-3.53,1-3.5,1.15a25.64,25.64,0,0,0,3.28,0c18-.1,24.92-.06,26.82,0,.17,0,1.93.08,2-.1S37.68,44.22,36.87,44Zm-6.21-13.9a3.85,3.85,0,0,1-2.49,1.28,17.4,17.4,0,0,1,1.24-3.53l.42-.82a2.45,2.45,0,0,1,1.37,1.87A1.9,1.9,0,0,1,30.66,30.05Zm2.79-7.62c1.89,1,3,2.24,3,3.61,0,1.78-2,3.38-5,4.45a2.61,2.61,0,0,0,.64-1.64,3.3,3.3,0,0,0-1.81-2.63A16.64,16.64,0,0,1,33.45,22.43ZM23.2,20.25a25.4,25.4,0,0,1,9.85,1.89,17.5,17.5,0,0,0-3.11,3.76,15.37,15.37,0,0,0-6.74-1.46Zm0,5.08a14.56,14.56,0,0,1,6.3,1.33c-.16.28-.31.57-.45.86a18.66,18.66,0,0,0-1.33,3.85c-.75-.92-2.63-1.44-4.52-1.52Zm0,5.41a8.52,8.52,0,0,1,2.82.54,3.25,3.25,0,0,1,.62.32,31.57,31.57,0,0,1-3.44.22Zm-1-10.49v4.19a14.91,14.91,0,0,0-7,1.6A17.53,17.53,0,0,0,12,22.14,25.58,25.58,0,0,1,22.2,20.25ZM17.35,31.37A18.12,18.12,0,0,0,16,27.52c-.11-.24-.24-.48-.37-.72a14,14,0,0,1,6.56-1.47v4.51C20.2,29.87,18.14,30.4,17.35,31.37Zm4.85-.64v1.1a32.44,32.44,0,0,1-3.77-.24,4,4,0,0,1,.62-.31A9.06,9.06,0,0,1,22.2,30.73ZM8.55,26c0-1.36,1.13-2.61,3-3.6a17,17,0,0,1,3.26,3.93,3.17,3.17,0,0,0-1.58,2.48A2.65,2.65,0,0,0,14,30.63C10.69,29.57,8.55,27.91,8.55,26Zm5.59,2.81a2.31,2.31,0,0,1,1.12-1.71c.12.22.23.44.34.66a18,18,0,0,1,1.24,3.53l-.34-.07C15,30.59,14.14,29.71,14.14,28.85Zm2.26,4.23h0a6.93,6.93,0,0,0-.75-.77l-.14-.12h0l.16,0,.1,0,.16,0a30.54,30.54,0,0,0,6.56.68h.33c1.2,0,2.23-.08,3-.15.54-.06,1.05-.12,1.56-.2.86-.14,1.59-.29,2.13-.42l-.16.15h0a8,8,0,0,0-.67.72,8.31,8.31,0,0,0-.9,1.3,4.16,4.16,0,0,1-.63.36l-.06,0a6.44,6.44,0,0,1-1.09.39l-.43.1a14.13,14.13,0,0,1-3,.32,13.71,13.71,0,0,1-2.64-.24A6.92,6.92,0,0,1,18.56,35a5.1,5.1,0,0,1-1.26-.61q-.18-.33-.39-.66C16.76,33.51,16.58,33.29,16.4,33.08Zm11.27,4.27c-.56.74-2.5,1.39-5.18,1.39s-4.61-.67-5.17-1.39a3.8,3.8,0,0,0,.05-.43A3.64,3.64,0,0,0,17,35.54a13.64,13.64,0,0,0,5.48,1,13.56,13.56,0,0,0,5.47-1,3.59,3.59,0,0,0-.35,1.38A2.37,2.37,0,0,0,27.67,37.35ZM16.22,39.74a6,6,0,0,0,1-1.78c.89.79,2.9,1.32,5.3,1.32s4.42-.53,5.31-1.32a6.62,6.62,0,0,0,1,1.78c.11.15.24.3.37.45-.05,1.11-2.7,2.28-6.66,2.28s-6.62-1.17-6.66-2.28ZM11.69,44.2H9.44A13,13,0,0,1,11,43.36l.66-.32a2,2,0,0,0-.1.58A1.91,1.91,0,0,0,11.69,44.2ZM32,44.2H12.68a1.34,1.34,0,0,1-.13-.54,1.38,1.38,0,0,1,.33-.87c.34-.2.66-.39.95-.58a10.37,10.37,0,0,0,1.5-1.3c.49,1.34,3.4,2.35,7,2.35s6.51-1,7-2.35a8.75,8.75,0,0,0,1.52,1.3,10.37,10.37,0,0,0,.95.58,1.45,1.45,0,0,1,.33.87A1.5,1.5,0,0,1,32,44.2Zm.79,0a1.69,1.69,0,0,0,.1-.58,1.86,1.86,0,0,0-.1-.58l.67.32a13,13,0,0,1,1.59.84Z" transform="translate(-0.2 -0.2)"/>
  <circle class="cls-3" cx="22.25" cy="6.68" r="2.26"/>
  <path class="cls-3" d="M28.4,32.2l-1.22-.29a20.28,20.28,0,0,1,2.47-6.21,15.76,15.76,0,0,1,2.08-2.85,13.78,13.78,0,0,1,1.87-1.67l1,.61a18.61,18.61,0,0,0-3.92,4.6A19.12,19.12,0,0,0,28.4,32.2Z" transform="translate(-0.2 -0.2)"/>
  <path class="cls-3" d="M16.59,32.2l1.22-.29a20.8,20.8,0,0,0-2.47-6.21,16.26,16.26,0,0,0-2.08-2.85,13.76,13.76,0,0,0-1.88-1.67l-1,.61a18.72,18.72,0,0,1,1.94,1.9,18.87,18.87,0,0,1,2,2.7A19.15,19.15,0,0,1,16.59,32.2Z" transform="translate(-0.2 -0.2)"/>
</svg>
